<svg width="32" height="30" viewBox="0 0 32 30" fill="none" xmlns="http://www.w3.org/2000/svg">
<path d="M16.0078 8.94501C18.4813 8.94501 20.5503 6.91138 20.5503 4.46491C20.5503 2.00314 18.4813 -0.0152042 16.0078 8.63092e-05C13.5187 0.0153768 11.4497 2.00314 11.4497 4.46491C11.4497 6.91138 13.5187 8.94501 16.0078 8.94501ZM27.4575 8.94501C29.9621 8.94501 32 6.91138 32 4.46491C32 2.00314 29.9621 -0.0152042 27.4575 8.63092e-05C24.9684 0.0153768 22.9305 2.00314 22.9305 4.46491C22.9305 6.91138 24.9684 8.94501 27.4575 8.94501ZM4.54254 8.92972C7.0316 8.92972 9.06952 6.91138 9.06952 4.4802C9.06952 2.03372 7.0316 8.63092e-05 4.54254 8.63092e-05C2.03792 8.63092e-05 0 2.03372 0 4.4802C0 6.91138 2.03792 8.92972 4.54254 8.92972ZM27.4575 6.74319C26.1507 6.74319 25.1706 5.73401 25.1706 4.46491C25.1706 3.18051 26.1507 2.17133 27.4575 2.17133C28.7642 2.17133 29.791 3.18051 29.791 4.46491C29.791 5.73401 28.7642 6.74319 27.4575 6.74319ZM4.54254 6.66673C3.26689 6.66673 2.28683 5.68814 2.28683 4.46491C2.28683 3.22638 3.26689 2.2325 4.54254 2.2325C5.80263 2.2325 6.79825 3.22638 6.79825 4.46491C6.79825 5.68814 5.80263 6.66673 4.54254 6.66673ZM16.0078 6.66673C14.7321 6.66673 13.7521 5.68814 13.7521 4.46491C13.7521 3.22638 14.7321 2.2325 16.0078 2.2325C17.2834 2.2325 18.2324 3.22638 18.2479 4.46491C18.279 5.68814 17.2834 6.66673 16.0078 6.66673ZM27.4575 19.4649C29.9621 19.4649 32 17.4312 32 15C32 12.5536 29.9621 10.5352 27.4575 10.5505C24.9684 10.5658 22.9305 12.5536 22.9305 15C22.9305 17.4312 24.9684 19.4649 27.4575 19.4649ZM16.0078 19.4649C18.4813 19.4649 20.5503 17.4312 20.5503 15C20.5503 12.5536 18.4813 10.5352 16.0078 10.5505C13.5187 10.5658 11.4497 12.5536 11.4497 15C11.4497 17.4312 13.5187 19.4649 16.0078 19.4649ZM4.54254 19.4649C7.0316 19.4649 9.06952 17.4312 9.06952 15C9.06952 12.5536 7.0316 10.5352 4.54254 10.5505C2.03792 10.5658 0 12.5536 0 15C0 17.4312 2.03792 19.4649 4.54254 19.4649ZM4.54254 17.2783C3.23578 17.2783 2.2246 16.2692 2.2246 14.9848C2.2246 13.7156 3.23578 12.6912 4.54254 12.6912C5.8493 12.6912 6.84492 13.7156 6.84492 14.9848C6.84492 16.2692 5.8493 17.2783 4.54254 17.2783ZM16.0078 17.2783C14.701 17.2783 13.6743 16.2692 13.6743 14.9848C13.6743 13.7156 14.701 12.6912 16.0078 12.6912C17.3145 12.6912 18.3257 13.7156 18.3257 14.9848C18.3257 16.2692 17.3145 17.2783 16.0078 17.2783ZM27.4575 17.2783C26.1507 17.2783 25.1706 16.2692 25.1706 14.9848C25.1706 13.7156 26.1507 12.6912 27.4575 12.6912C28.7642 12.6912 29.791 13.7156 29.791 14.9848C29.791 16.2692 28.7642 17.2783 27.4575 17.2783ZM4.54254 30C7.0316 30 9.06952 27.9664 9.06952 25.5352C9.06952 23.0734 7.0316 21.0704 4.54254 21.0704C2.03792 21.0704 0 23.0734 0 25.5352C0 27.9664 2.03792 30 4.54254 30ZM16.0078 30C18.4813 30 20.5503 27.9664 20.5503 25.5352C20.5503 23.0734 18.4813 21.0704 16.0078 21.0704C13.5187 21.0704 11.4497 23.0734 11.4497 25.5352C11.4497 27.9664 13.5187 30 16.0078 30ZM27.4575 30C29.9621 30 32 27.9664 32 25.5352C32 23.0734 29.9621 21.0704 27.4575 21.0704C24.9684 21.0704 22.9305 23.0734 22.9305 25.5352C22.9305 27.9664 24.9684 30 27.4575 30ZM4.54254 27.8135C3.23578 27.8135 2.2246 26.8043 2.2246 25.5199C2.2246 24.2508 3.23578 23.2263 4.54254 23.2263C5.8493 23.2263 6.84492 24.2508 6.84492 25.5199C6.84492 26.8043 5.8493 27.8135 4.54254 27.8135ZM16.0078 27.8135C14.701 27.8135 13.6743 26.8043 13.6743 25.5199C13.6743 24.2508 14.701 23.2263 16.0078 23.2263C17.3145 23.2263 18.3257 24.2508 18.3257 25.5199C18.3257 26.8043 17.3145 27.8135 16.0078 27.8135ZM27.4575 27.8135C26.1507 27.8135 25.1706 26.8043 25.1706 25.5199C25.1706 24.2508 26.1507 23.2263 27.4575 23.2263C28.7642 23.2263 29.791 24.2508 29.791 25.5199C29.791 26.8043 28.7642 27.8135 27.4575 27.8135Z" fill="#90B3C7"/>
</svg>
