<svg width="32" height="26" viewBox="0 0 32 26" fill="none" xmlns="http://www.w3.org/2000/svg">
<path d="M4.42448 26H27.9982C30.5205 26 32 24.5224 32 21.5956V7.00437C32 4.0776 30.5064 2.6 27.5755 2.6H14.0484C13.0903 2.6 12.5126 2.37268 11.808 1.76175L10.9485 1.05137C10.0185 0.255738 9.29987 0 7.90489 0H3.88904C1.42316 0 0 1.42077 0 4.2765V21.5956C0 24.5366 1.47952 26 4.42448 26ZM2.2686 4.40437C2.2686 2.99781 3.00132 2.27322 4.35403 2.27322H7.32717C8.25716 2.27322 8.82078 2.51475 9.53941 3.12568L10.3989 3.85027C11.3148 4.61749 12.0616 4.88743 13.4566 4.88743H27.5332C28.9282 4.88743 29.7314 5.65464 29.7314 7.13224V7.94208H2.2686V4.40437ZM4.45266 23.7126C3.04359 23.7126 2.2686 22.9596 2.2686 21.482V10.0874H29.7314V21.4962C29.7314 22.9596 28.9282 23.7126 27.5332 23.7126H4.45266Z" fill="#90B3C7"/>
</svg>
