<svg width="30" height="32" viewBox="0 0 30 32" fill="none" xmlns="http://www.w3.org/2000/svg">
<path d="M22.8299 10.713C25.8347 10.713 28.3466 8.28944 28.3466 5.35649C28.3466 2.42354 25.8347 0 22.8299 0C19.7933 0 17.3132 2.42354 17.3132 5.35649C17.3132 8.28944 19.7933 10.713 22.8299 10.713ZM2.40064 26.4274H18.4102C18.283 28.5113 16.9157 29.8389 14.9921 29.8389C13.0843 29.8389 11.7011 28.5113 11.5898 26.4274H9.1097C9.23688 29.3912 11.6375 32 14.9921 32C18.3625 32 20.7631 29.3912 20.8903 26.4274H27.5994C29.0938 26.4274 30 25.671 30 24.5596C30 23.0159 28.3784 21.6266 27.0111 20.2528C25.9618 19.1877 25.6757 16.9957 25.5485 15.2205C25.5326 14.1862 25.4531 13.2446 25.3577 12.3338C24.6105 12.5808 23.6248 12.7197 22.8458 12.6734C22.9412 13.4916 23.0048 14.3869 23.0207 15.4057C23.1638 18.4313 23.7043 20.4071 24.8331 21.6421C25.6757 22.5528 26.6137 23.4481 26.8998 23.9112V24.0965H3.08426V23.9112C3.37043 23.4481 4.32432 22.5528 5.15103 21.6421C6.29571 20.4071 6.83625 18.4313 6.97933 15.4057C7.10652 8.67535 9.17329 6.51423 11.8919 5.80415C12.2893 5.71153 12.5119 5.51085 12.5278 5.12494C12.5755 3.5041 13.5294 2.37723 14.9921 2.37723C15.2782 2.37723 15.5485 2.42354 15.7711 2.50072C16.0731 1.79064 16.4706 1.12687 16.9793 0.54028C16.3911 0.277858 15.7234 0.108056 14.9921 0.108056C12.655 0.108056 10.938 1.71346 10.4134 3.72021C6.18442 5.20212 4.5628 9.13845 4.45151 15.2205C4.32432 16.9957 4.03816 19.1877 2.98887 20.2528C1.60572 21.6266 0 23.0159 0 24.5596C0 25.671 0.890302 26.4274 2.40064 26.4274Z" />
</svg>
