<svg width="26" height="32" viewBox="0 0 26 32" fill="none" xmlns="http://www.w3.org/2000/svg">
<path d="M13 32C20.8 32 26 29.0384 26 24.8467V6.46986C26 2.64262 20.8 0 13 0C5.2 0 0 2.64262 0 6.46986V24.8467C0 29.0384 5.2 32 13 32ZM13 10.6312C6.66628 10.6312 2.43372 8.91504 2.43372 6.46986C2.43372 3.91837 6.66628 2.14143 13 2.14143C19.3337 2.14143 23.5663 3.91837 23.5663 6.46986C23.5663 8.91504 19.3337 10.6312 13 10.6312ZM13 12.9245C17.6105 12.9245 21.314 12.0133 23.5663 10.4642V17.3745C21.0721 18.9995 17.036 20.0626 13 20.0626C8.96395 20.0626 4.92791 18.9995 2.43372 17.3745V10.4642C4.68605 12.0133 8.38953 12.9245 13 12.9245ZM13 22.356C16.9605 22.356 20.8756 21.4295 23.5663 19.9563V24.8467C23.5663 27.6564 19.3337 29.7067 13 29.7067C6.66628 29.7067 2.43372 27.6564 2.43372 24.8467V19.9563C5.12442 21.4295 9.02442 22.356 13 22.356Z" />
</svg>
