<svg width="32" height="32" viewBox="0 0 32 32" fill="none" xmlns="http://www.w3.org/2000/svg">
<path d="M14.4897 32H17.5103C18.6617 32 19.5439 31.2965 19.8131 30.189L20.4561 27.3901L20.9346 27.2254L23.372 28.7222C24.3439 29.3358 25.4654 29.1862 26.2879 28.363L28.3813 26.2825C29.2037 25.4593 29.3533 24.3218 28.7402 23.3639L27.215 20.9392L27.3944 20.4902L30.1907 19.8316C31.2822 19.5622 32 18.6642 32 17.5267V14.5631C32 13.4256 31.2972 12.5276 30.1907 12.2582L27.4243 11.5847L27.2299 11.1057L28.7551 8.68101C29.3682 7.72311 29.2187 6.60056 28.3963 5.76239L26.3028 3.66698C25.4953 2.85875 24.3738 2.70907 23.4019 3.30776L20.9645 4.80449L20.4561 4.60992L19.8131 1.81104C19.5439 0.703461 18.6617 0 17.5103 0H14.4897C13.3383 0 12.4561 0.703461 12.1869 1.81104L11.529 4.60992L11.0206 4.80449L8.59813 3.30776C7.62617 2.70907 6.48972 2.85875 5.68224 3.66698L3.60374 5.76239C2.78131 6.60056 2.61682 7.72311 3.24486 8.68101L4.75514 11.1057L4.5757 11.5847L1.80935 12.2582C0.702804 12.5276 0 13.4256 0 14.5631V17.5267C0 18.6642 0.717757 19.5622 1.80935 19.8316L4.60561 20.4902L4.77009 20.9392L3.25981 23.3639C2.63178 24.3218 2.79626 25.4593 3.61869 26.2825L5.6972 28.363C6.51963 29.1862 7.65608 29.3358 8.62804 28.7222L11.0505 27.2254L11.529 27.3901L12.1869 30.189C12.4561 31.2965 13.3383 32 14.4897 32ZM14.729 29.6651C14.4748 29.6651 14.3402 29.5603 14.2953 29.3209L13.3981 25.609C12.486 25.3845 11.6336 25.0253 10.9907 24.6211L7.73084 26.6268C7.5514 26.7615 7.35701 26.7315 7.17757 26.5519L5.41308 24.7858C5.2486 24.6211 5.23364 24.4415 5.35327 24.232L7.35701 20.9991C7.01308 20.3704 6.6243 19.5173 6.38505 18.6043L2.67664 17.7212C2.43738 17.6763 2.33271 17.5416 2.33271 17.2872V14.7877C2.33271 14.5182 2.42243 14.3985 2.67664 14.3536L6.37009 13.4556C6.60935 12.4827 7.05794 11.5996 7.3271 11.0458L5.33832 7.81291C5.20374 7.5884 5.21869 7.40879 5.38318 7.22919L7.16262 5.49298C7.34206 5.31338 7.50654 5.28344 7.73084 5.41815L10.9607 7.37886C11.6037 7.01964 12.5159 6.64546 13.4131 6.39102L14.2953 2.67914C14.3402 2.43966 14.4748 2.33489 14.729 2.33489H17.271C17.5252 2.33489 17.6598 2.43966 17.6897 2.67914L18.6019 6.42095C19.529 6.66043 20.3364 7.03461 21.0093 7.39383L24.2542 5.41815C24.4935 5.28344 24.643 5.31338 24.8374 5.49298L26.6019 7.22919C26.7813 7.40879 26.7813 7.5884 26.6467 7.81291L24.6579 11.0458C24.9421 11.5996 25.3757 12.4827 25.615 13.4556L29.3234 14.3536C29.5626 14.3985 29.6673 14.5182 29.6673 14.7877V17.2872C29.6673 17.5416 29.5477 17.6763 29.3234 17.7212L25.6 18.6043C25.3607 19.5173 24.9869 20.3704 24.628 20.9991L26.6318 24.232C26.7514 24.4415 26.7514 24.6211 26.572 24.7858L24.8224 26.5519C24.628 26.7315 24.4486 26.7615 24.2542 26.6268L20.9944 24.6211C20.3514 25.0253 19.514 25.3845 18.6019 25.609L17.6897 29.3209C17.6598 29.5603 17.5252 29.6651 17.271 29.6651H14.729ZM16 21.7175C19.1252 21.7175 21.6972 19.1431 21.6972 16C21.6972 12.8868 19.1252 10.3124 16 10.3124C12.8748 10.3124 10.2879 12.8868 10.2879 16C10.2879 19.1282 12.8598 21.7175 16 21.7175ZM16 19.3976C14.1458 19.3976 12.6206 17.8709 12.6206 16C12.6206 14.159 14.1458 12.6324 16 12.6324C17.8243 12.6324 19.3495 14.159 19.3495 16C19.3495 17.8559 17.8243 19.3976 16 19.3976Z" fill="#90B3C7"/>
</svg>
