<svg width="30" height="32" viewBox="0 0 30 32" fill="none" xmlns="http://www.w3.org/2000/svg">
<path d="M2.08024 25.1057L13.7741 31.6479C14.6062 32.1174 15.3938 32.1174 16.2407 31.6479L27.9198 25.1057C29.2868 24.3429 30 23.5654 30 21.4678V9.8501C30 8.32455 29.4354 7.37107 28.1872 6.66697L17.6672 0.770112C15.8692 -0.256704 14.1308 -0.256704 12.3328 0.770112L1.82764 6.66697C0.564636 7.37107 0 8.32455 0 9.8501V21.4678C0 23.5654 0.728083 24.3429 2.08024 25.1057ZM13.9822 5.02407H16.0178V2.55971C16.2407 2.64772 16.4636 2.7504 16.6865 2.86775L26.4785 8.38322L16.0178 14.2214V11.8891H13.9822V14.2214L3.5364 8.38322L13.3284 2.86775C13.5513 2.7504 13.7741 2.64772 13.9822 2.55971V5.02407ZM13.9822 10.3928H16.0178V6.50562H13.9822V10.3928ZM3.41753 23.1694L3.34324 23.14L5.14116 22.2452L4.21991 20.441L2.25854 21.4091V10.3195L12.7786 16.2604L10.4606 17.4045L11.367 19.2088L13.8336 17.9913V29.0222L3.41753 23.1694ZM24.8588 22.2452L26.6568 23.14L26.5973 23.1694L16.1664 29.0222V17.9913L18.633 19.2088L19.5394 17.4045L17.2214 16.2604L27.7415 10.3195V21.4091L25.7949 20.441L24.8588 22.2452ZM6.49331 21.5998L10 19.8689L9.09361 18.0646L5.58692 19.7956L6.49331 21.5998ZM20 19.8689L23.5215 21.5998L24.4279 19.7956L20.9064 18.0646L20 19.8689Z"/>
</svg>
