<svg width="16" height="16" viewBox="0 0 16 16" fill="none" xmlns="http://www.w3.org/2000/svg">
<path d="M8.00008 2.66675C8.70732 2.66675 9.3856 2.9477 9.8857 3.4478C10.3858 3.94789 10.6667 4.62617 10.6667 5.33341C10.6667 6.04066 10.3858 6.71894 9.8857 7.21903C9.3856 7.71913 8.70732 8.00008 8.00008 8.00008C7.29284 8.00008 6.61456 7.71913 6.11446 7.21903C5.61437 6.71894 5.33341 6.04066 5.33341 5.33341C5.33341 4.62617 5.61437 3.94789 6.11446 3.4478C6.61456 2.9477 7.29284 2.66675 8.00008 2.66675ZM8.00008 9.33341C10.9467 9.33341 13.3334 10.5267 13.3334 12.0001V13.3334H2.66675V12.0001C2.66675 10.5267 5.05341 9.33341 8.00008 9.33341Z" />
</svg>
