<svg width="13" height="14" viewBox="0 0 13 14" fill="none" xmlns="http://www.w3.org/2000/svg">
    <path d="M5.25 7.00423C5.25 7.23263 5.33946 7.44411 5.48855 7.60483L11.0423 13.7631C11.1765 13.9154 11.348 14 11.5418 14C11.9444 14 12.25 13.6532 12.25 13.1964C12.25 12.9849 12.1755 12.7734 12.0413 12.6211L6.97204 7.00423L12.0413 1.37885C12.1755 1.22659 12.25 1.03202 12.25 0.803625C12.25 0.355287 11.9444 2.67203e-08 11.5418 6.19129e-08C11.348 7.88574e-08 11.1765 0.084592 11.0423 0.236858L5.48855 6.39517C5.332 6.57281 5.25 6.76737 5.25 7.00423Z"/>
    <path d="M-6.1159e-07 7.00423C-5.91622e-07 7.23263 0.0894569 7.44411 0.238552 7.60484L5.79233 13.7631C5.92652 13.9154 6.09798 14 6.2918 14C6.69436 14 7 13.6532 7 13.1964C7 12.9849 6.92545 12.7734 6.79127 12.6211L1.72204 7.00423L6.79127 1.37885C6.92545 1.22659 7 1.03202 7 0.803626C7 0.355287 6.69435 4.8569e-07 6.2918 5.20882e-07C6.09797 5.37827e-07 5.92652 0.0845924 5.79233 0.236859L0.238551 6.39517C0.082002 6.57281 -6.32296e-07 6.76737 -6.1159e-07 7.00423Z"/>
</svg>
