<svg width="14" height="12" viewBox="0 0 14 12" fill="none" xmlns="http://www.w3.org/2000/svg">
    <path d="M0 6C0 6.19789 0.0829295 6.37995 0.23371 6.53034L5.23963 11.7784C5.39041 11.9288 5.54873 12 5.72967 12C6.09908 12 6.39311 11.715 6.39311 11.3193C6.39311 11.1293 6.32526 10.9393 6.20463 10.8206L4.51589 9.01583L1.97523 6.58575L3.79968 6.70449H13.3366C13.7286 6.70449 14 6.41161 14 6C14 5.58839 13.7286 5.29551 13.3366 5.29551H3.79968L1.98277 5.41425L4.51589 2.98417L6.20463 1.17942C6.32526 1.05277 6.39311 0.870712 6.39311 0.680739C6.39311 0.28496 6.09908 0 5.72967 0C5.54873 0 5.39041 0.0633245 5.22456 0.237467L0.23371 5.46966C0.0829295 5.62005 0 5.80211 0 6Z" />
</svg>
