<svg width="13" height="14" viewBox="0 0 13 14" fill="none" xmlns="http://www.w3.org/2000/svg">
    <path d="M7 6.99577C7 6.76737 6.91054 6.55589 6.76145 6.39517L1.20767 0.236858C1.07348 0.0845921 0.902023 -8.47228e-09 0.7082 0C0.305644 1.75963e-08 -1.99673e-08 0.346828 0 0.803625C9.2441e-09 1.01511 0.0745474 1.22659 0.208733 1.37885L5.27796 6.99577L0.208733 12.6211C0.0745479 12.7734 5.3172e-07 12.968 5.41704e-07 13.1964C5.61302e-07 13.6447 0.305645 14 0.708201 14C0.902024 14 1.07348 13.9154 1.20767 13.7631L6.76145 7.60483C6.918 7.42719 7 7.23263 7 6.99577Z"/>
    <path d="M12.25 6.99577C12.25 6.76737 12.1605 6.55589 12.0114 6.39517L6.45767 0.236858C6.32348 0.0845921 6.15202 -8.47228e-09 5.9582 0C5.55564 1.75963e-08 5.25 0.346828 5.25 0.803625C5.25 1.01511 5.32455 1.22659 5.45873 1.37885L10.528 6.99577L5.45873 12.6211C5.32455 12.7734 5.25 12.968 5.25 13.1964C5.25 13.6447 5.55564 14 5.9582 14C6.15202 14 6.32348 13.9154 6.45767 13.7631L12.0114 7.60483C12.168 7.42719 12.25 7.23263 12.25 6.99577Z"/>
</svg>
