<svg width="8" height="14" viewBox="0 0 8 14" fill="none" xmlns="http://www.w3.org/2000/svg">
    <path d="M0.25 7.00423C0.25 7.23263 0.339457 7.44411 0.488551 7.60483L6.04233 13.7631C6.17652 13.9154 6.34798 14 6.5418 14C6.94436 14 7.25 13.6532 7.25 13.1964C7.25 12.9849 7.17545 12.7734 7.04127 12.6211L1.97204 7.00423L7.04127 1.37885C7.17545 1.22659 7.25 1.03202 7.25 0.803625C7.25 0.355287 6.94436 -1.33601e-08 6.5418 -3.09564e-08C6.34798 -3.94287e-08 6.17652 0.0845921 6.04233 0.236858L0.488551 6.39517C0.332002 6.57281 0.25 6.76737 0.25 7.00423Z"/>
</svg>
