<svg width="14" height="8" viewBox="0 0 14 8" fill="none" xmlns="http://www.w3.org/2000/svg">
    <path d="M7.00423 8C7.23263 8 7.44411 7.89776 7.60483 7.72737L13.7631 1.38019C13.9154 1.22684 14 1.03088 14 0.809372C14 0.349308 13.6532 0 13.1964 0C12.9849 0 12.7734 0.085197 12.6211 0.238552L7.00423 6.03195L1.37885 0.238552C1.22659 0.085197 1.03202 0 0.803625 0C0.355287 0 0 0.349308 0 0.809372C0 1.03088 0.0845921 1.22684 0.236858 1.38019L6.39517 7.72737C6.57281 7.90628 6.76737 8 7.00423 8Z"/>
</svg>
