<svg width="12" height="6" viewBox="0 0 12 6" fill="none" xmlns="http://www.w3.org/2000/svg">
    <path d="M5.99637 5.24854e-07C5.8006 5.41968e-07 5.61933 0.0766779 5.48157 0.204474L0.203021 4.96486C0.0725068 5.07987 -6.7592e-08 5.22684 -5.30681e-08 5.39297C-2.29031e-08 5.73802 0.29728 6 0.688822 6C0.87009 6 1.05136 5.9361 1.18187 5.82109L5.99637 1.47604L10.8181 5.82109C10.9486 5.9361 11.1154 6 11.3112 6C11.6955 6 12 5.73802 12 5.39297C12 5.22684 11.9275 5.07987 11.797 4.96486L6.51843 0.204473C6.36616 0.0702882 6.1994 5.07105e-07 5.99637 5.24854e-07Z"/>
</svg>
