<svg width="7" height="14" viewBox="0 0 7 14" fill="none" xmlns="http://www.w3.org/2000/svg">
    <path d="M7 6.99577C7 6.76737 6.91054 6.55589 6.76145 6.39517L1.20767 0.236858C1.07348 0.0845928 0.902023 -3.94287e-08 0.7082 -3.09564e-08C0.305644 -1.33601e-08 -5.96799e-07 0.346828 -5.76832e-07 0.803626C-5.67588e-07 1.01511 0.0745468 1.22659 0.208732 1.37885L5.27795 6.99577L0.208733 12.6211C0.0745473 12.7734 -4.51112e-08 12.968 -3.51276e-08 13.1964C-1.55301e-08 13.6447 0.305644 14 0.7082 14C0.902023 14 1.07348 13.9154 1.20767 13.7631L6.76145 7.60483C6.918 7.42719 7 7.23263 7 6.99577Z" />
</svg>
