<svg xmlns="http://www.w3.org/2000/svg" width="16" height="17" viewBox="0 0 16 17" fill="none">
    <path d="M2.20115 7.92887H5.22772C6.72017 7.92887 7.42887 7.22017 7.42887 5.70271V2.71782C7.42887 1.20036 6.72017 0.5 5.22772 0.5H2.20115C0.708702 0.5 0 1.20036 0 2.71782V5.70271C0 7.22017 0.708702 7.92887 2.20115 7.92887ZM10.7723 7.92887H13.7989C15.2913 7.92887 16 7.22017 16 5.70271V2.71782C16 1.20036 15.2913 0.5 13.7989 0.5H10.7723C9.27983 0.5 8.57113 1.20036 8.57113 2.71782V5.70271C8.57113 7.22017 9.27983 7.92887 10.7723 7.92887ZM2.20115 6.15294C1.90099 6.15294 1.76759 6.01954 1.76759 5.71105V2.70948C1.76759 2.40933 1.90099 2.26759 2.20115 2.26759H5.22772C5.51954 2.26759 5.66128 2.40933 5.66128 2.70948V5.71105C5.66128 6.01954 5.51954 6.15294 5.22772 6.15294H2.20115ZM10.7723 6.15294C10.4805 6.15294 10.3387 6.01954 10.3387 5.71105V2.70948C10.3387 2.40933 10.4805 2.26759 10.7723 2.26759H13.7989C14.099 2.26759 14.2324 2.40933 14.2324 2.70948V5.71105C14.2324 6.01954 14.099 6.15294 13.7989 6.15294H10.7723ZM2.20115 16.5H5.22772C6.72017 16.5 7.42887 15.7913 7.42887 14.2822V11.289C7.42887 9.77149 6.72017 9.07113 5.22772 9.07113H2.20115C0.708702 9.07113 0 9.77149 0 11.289V14.2822C0 15.7913 0.708702 16.5 2.20115 16.5ZM10.7723 16.5H13.7989C15.2913 16.5 16 15.7913 16 14.2822V11.289C16 9.77149 15.2913 9.07113 13.7989 9.07113H10.7723C9.27983 9.07113 8.57113 9.77149 8.57113 11.289V14.2822C8.57113 15.7913 9.27983 16.5 10.7723 16.5ZM2.20115 14.7241C1.90099 14.7241 1.76759 14.5907 1.76759 14.2905V11.2806C1.76759 10.9805 1.90099 10.8387 2.20115 10.8387H5.22772C5.51954 10.8387 5.66128 10.9805 5.66128 11.2806V14.2905C5.66128 14.5907 5.51954 14.7241 5.22772 14.7241H2.20115ZM10.7723 14.7241C10.4805 14.7241 10.3387 14.5907 10.3387 14.2905V11.2806C10.3387 10.9805 10.4805 10.8387 10.7723 10.8387H13.7989C14.099 10.8387 14.2324 10.9805 14.2324 11.2806V14.2905C14.2324 14.5907 14.099 14.7241 13.7989 14.7241H10.7723Z"
          fill="#0A93F5"/>
</svg>