<svg width="19" height="19" viewBox="0 0 19 19" fill="none" xmlns="http://www.w3.org/2000/svg">
<path d="M13.6476 8.45529C15.122 8.25024 16.2575 6.99808 16.2602 5.48254C16.2602 3.98888 15.1597 2.74948 13.7167 2.51526M15.5928 11.964C17.0212 12.1745 18.0185 12.6703 18.0185 13.691C18.0185 14.3936 17.5489 14.8493 16.79 15.1345M7.30093 12.3966C10.6982 12.3966 13.6019 12.906 13.6019 14.941C13.6019 16.976 10.7175 17.5 7.30093 17.5C3.90274 17.5 1 16.9951 1 14.9592C1 12.9233 3.8834 12.3966 7.30093 12.3966ZM7.30076 9.49233C5.07029 9.49233 3.26161 7.7034 3.26161 5.49616C3.26161 3.28893 5.07029 1.5 7.30076 1.5C9.53031 1.5 11.339 3.28893 11.339 5.49616C11.3473 7.69519 9.55149 9.48413 7.32931 9.49233H7.30076Z" stroke="#D3E9F5" stroke-width="1.8" stroke-linecap="round" stroke-linejoin="round"/>
</svg>
