<svg xmlns="http://www.w3.org/2000/svg" width="380" height="44" viewBox="0 0 380 44" fill="none">
    <path d="M115.024 22.5V12.384H124.168C126.04 12.384 127.432 12.84 128.344 13.752C129.256 14.664 129.712 15.912 129.712 17.496C129.712 18.288 129.556 18.996 129.244 19.62C128.956 20.22 128.56 20.736 128.056 21.168C127.552 21.6 126.964 21.936 126.292 22.176C125.62 22.392 124.912 22.5 124.168 22.5H115.024ZM112.576 10.296V36H115.024V24.588H124.312C125.464 24.54 126.364 24.732 127.012 25.164C127.684 25.596 128.188 26.172 128.524 26.892C128.884 27.588 129.112 28.392 129.208 29.304C129.328 30.192 129.412 31.092 129.46 32.004C129.484 32.268 129.508 32.58 129.532 32.94C129.556 33.3 129.58 33.672 129.604 34.056C129.652 34.416 129.712 34.776 129.784 35.136C129.88 35.472 130 35.76 130.144 36H132.844C132.58 35.688 132.364 35.256 132.196 34.704C132.052 34.128 131.944 33.528 131.872 32.904C131.8 32.256 131.752 31.62 131.728 30.996C131.704 30.372 131.68 29.844 131.656 29.412C131.608 28.644 131.5 27.936 131.332 27.288C131.188 26.616 130.936 26.028 130.576 25.524C130.24 25.02 129.796 24.612 129.244 24.3C128.692 23.964 127.996 23.736 127.156 23.616V23.544C128.812 23.208 130.06 22.44 130.9 21.24C131.74 20.04 132.16 18.624 132.16 16.992C132.16 15.84 131.944 14.844 131.512 14.004C131.104 13.14 130.54 12.444 129.82 11.916C129.124 11.364 128.296 10.956 127.336 10.692C126.4 10.428 125.404 10.296 124.348 10.296H112.576ZM136.588 10.296V36H154.516V33.912H139.036V23.76H153.364V21.672H139.036V12.384H154.336V10.296H136.588ZM176.72 18.072H179.168C179 16.728 178.592 15.54 177.944 14.508C177.32 13.476 176.528 12.612 175.568 11.916C174.632 11.196 173.576 10.656 172.4 10.296C171.248 9.936 170.06 9.756 168.836 9.756C166.82 9.756 165.044 10.128 163.508 10.872C161.996 11.592 160.736 12.576 159.728 13.824C158.72 15.048 157.964 16.464 157.46 18.072C156.956 19.68 156.704 21.372 156.704 23.148C156.704 24.924 156.956 26.616 157.46 28.224C157.964 29.832 158.72 31.248 159.728 32.472C160.736 33.696 161.996 34.68 163.508 35.424C165.044 36.144 166.82 36.504 168.836 36.504C170.348 36.504 171.716 36.264 172.94 35.784C174.188 35.304 175.268 34.62 176.18 33.732C177.092 32.844 177.836 31.764 178.412 30.492C178.988 29.22 179.36 27.792 179.528 26.208H177.08C176.96 27.36 176.684 28.44 176.252 29.448C175.82 30.432 175.256 31.296 174.56 32.04C173.864 32.784 173.036 33.372 172.076 33.804C171.116 34.236 170.036 34.452 168.836 34.452C167.132 34.452 165.668 34.128 164.444 33.48C163.22 32.832 162.212 31.98 161.42 30.924C160.652 29.844 160.076 28.632 159.692 27.288C159.332 25.92 159.152 24.54 159.152 23.148C159.152 21.732 159.332 20.352 159.692 19.008C160.076 17.664 160.652 16.464 161.42 15.408C162.212 14.328 163.22 13.464 164.444 12.816C165.668 12.168 167.132 11.844 168.836 11.844C169.772 11.844 170.66 11.988 171.5 12.276C172.364 12.54 173.144 12.936 173.84 13.464C174.56 13.992 175.16 14.652 175.64 15.444C176.144 16.212 176.504 17.088 176.72 18.072ZM183.276 10.296V36H200.124V33.912H185.724V10.296H183.276ZM206.248 25.92L211.396 12.744L216.364 25.92H206.248ZM210.136 10.296L199.804 36H202.396L205.492 28.008H217.192L220.324 36H222.952L212.872 10.296H210.136ZM225.287 10.296V36H234.179C238.091 35.904 241.031 34.812 242.999 32.724C244.991 30.612 245.987 27.42 245.987 23.148C245.987 18.876 244.991 15.696 242.999 13.608C241.031 11.496 238.091 10.392 234.179 10.296H225.287ZM227.735 33.912V12.384H232.955C234.803 12.384 236.387 12.588 237.707 12.996C239.051 13.38 240.155 14.004 241.019 14.868C241.883 15.732 242.519 16.848 242.927 18.216C243.335 19.584 243.539 21.228 243.539 23.148C243.539 25.068 243.335 26.712 242.927 28.08C242.519 29.448 241.883 30.564 241.019 31.428C240.155 32.292 239.051 32.928 237.707 33.336C236.387 33.72 234.803 33.912 232.955 33.912H227.735ZM253.568 25.92L258.716 12.744L263.684 25.92H253.568ZM257.456 10.296L247.124 36H249.716L252.812 28.008H264.512L267.644 36H270.272L260.192 10.296H257.456Z"
          fill="#2D9CDB"/>
</svg>