<svg width="24" height="24" viewBox="0 0 24 24" fill="none" xmlns="http://www.w3.org/2000/svg">
<path d="M20.9528 10.8281C21.677 10.8281 21.9793 9.89765 21.3911 9.46874L12.4403 2.9578C12.3125 2.86415 12.1581 2.81366 11.9997 2.81366C11.8412 2.81366 11.6869 2.86415 11.559 2.9578L2.60825 9.46874C2.01997 9.89531 2.32231 10.8281 3.04888 10.8281H4.49966V19.5938H2.81216C2.70903 19.5938 2.62466 19.6781 2.62466 19.7813V21C2.62466 21.1031 2.70903 21.1875 2.81216 21.1875H21.1872C21.2903 21.1875 21.3747 21.1031 21.3747 21V19.7813C21.3747 19.6781 21.2903 19.5938 21.1872 19.5938H19.4997V10.8281H20.9528ZM11.9997 4.61015L18.3536 9.23203H5.64575L11.9997 4.61015ZM6.18716 10.8281H8.92934V19.5938H6.18716V10.8281ZM10.6168 10.8281H13.359V19.5938H10.6168V10.8281ZM17.8122 19.5938H15.0465V10.8281H17.8122V19.5938Z" />
</svg>
