<svg width="24" height="24" viewBox="0 0 24 24" fill="none" xmlns="http://www.w3.org/2000/svg">
<path d="M12 3C10.8181 3 9.64778 3.23279 8.55585 3.68508C7.46392 4.13738 6.47177 4.80031 5.63604 5.63604C3.94821 7.32387 3 9.61305 3 12C3 14.3869 3.94821 16.6761 5.63604 18.364C6.47177 19.1997 7.46392 19.8626 8.55585 20.3149C9.64778 20.7672 10.8181 21 12 21C14.3869 21 16.6761 20.0518 18.364 18.364C20.0518 16.6761 21 14.3869 21 12C21 10.8181 20.7672 9.64778 20.3149 8.55585C19.8626 7.46392 19.1997 6.47177 18.364 5.63604C17.5282 4.80031 16.5361 4.13738 15.4442 3.68508C14.3522 3.23279 13.1819 3 12 3ZM12 4.8C13.9096 4.8 15.7409 5.55857 17.0912 6.90883C18.4414 8.25909 19.2 10.0904 19.2 12C19.2 13.9096 18.4414 15.7409 17.0912 17.0912C15.7409 18.4414 13.9096 19.2 12 19.2C10.0904 19.2 8.25909 18.4414 6.90883 17.0912C5.55857 15.7409 4.8 13.9096 4.8 12C4.8 10.0904 5.55857 8.25909 6.90883 6.90883C8.25909 5.55857 10.0904 4.8 12 4.8ZM12 6.6C10.5678 6.6 9.19432 7.16893 8.18162 8.18162C7.16893 9.19432 6.6 10.5678 6.6 12C6.6 13.4322 7.16893 14.8057 8.18162 15.8184C9.19432 16.8311 10.5678 17.4 12 17.4C13.4322 17.4 14.8057 16.8311 15.8184 15.8184C16.8311 14.8057 17.4 13.4322 17.4 12C17.4 10.5678 16.8311 9.19432 15.8184 8.18162C14.8057 7.16893 13.4322 6.6 12 6.6ZM12 8.4C12.9548 8.4 13.8705 8.77928 14.5456 9.45442C15.2207 10.1295 15.6 11.0452 15.6 12C15.6 12.9548 15.2207 13.8705 14.5456 14.5456C13.8705 15.2207 12.9548 15.6 12 15.6C11.0452 15.6 10.1295 15.2207 9.45442 14.5456C8.77928 13.8705 8.4 12.9548 8.4 12C8.4 11.0452 8.77928 10.1295 9.45442 9.45442C10.1295 8.77928 11.0452 8.4 12 8.4ZM12 10.2C11.5226 10.2 11.0648 10.3896 10.7272 10.7272C10.3896 11.0648 10.2 11.5226 10.2 12C10.2 12.4774 10.3896 12.9352 10.7272 13.2728C11.0648 13.6104 11.5226 13.8 12 13.8C12.4774 13.8 12.9352 13.6104 13.2728 13.2728C13.6104 12.9352 13.8 12.4774 13.8 12C13.8 11.5226 13.6104 11.0648 13.2728 10.7272C12.9352 10.3896 12.4774 10.2 12 10.2Z" />
</svg>
