<svg width="20" height="17" viewBox="0 0 20 17" fill="none" xmlns="http://www.w3.org/2000/svg">
    <path d="M1.93606 7.79508H7.38011C8.67673 7.79508 9.30728 7.14928 9.30728 5.78491V2.01017C9.30728 0.6458 8.67673 0 7.38011 0H1.93606C0.630551 0 0 0.6458 0 2.01017V5.78491C0 7.14928 0.630551 7.79508 1.93606 7.79508ZM12.6199 7.79508H18.0728C19.3694 7.79508 20 7.14928 20 5.78491V2.01017C20 0.6458 19.3694 0 18.0728 0H12.6199C11.3233 0 10.6927 0.6458 10.6927 2.01017V5.78491C10.6927 7.14928 11.3233 7.79508 12.6199 7.79508ZM1.93606 6.27608C1.62522 6.27608 1.48313 6.11236 1.48313 5.78491V2.00107C1.48313 1.67362 1.62522 1.5099 1.93606 1.5099H7.36234C7.67318 1.5099 7.83304 1.67362 7.83304 2.00107V5.78491C7.83304 6.11236 7.67318 6.27608 7.36234 6.27608H1.93606ZM12.6377 6.27608C12.3179 6.27608 12.167 6.11236 12.167 5.78491V2.00107C12.167 1.67362 12.3179 1.5099 12.6377 1.5099H18.0639C18.3748 1.5099 18.5169 1.67362 18.5169 2.00107V5.78491C18.5169 6.11236 18.3748 6.27608 18.0639 6.27608H12.6377ZM1.93606 17H7.38011C8.67673 17 9.30728 16.3542 9.30728 14.9898V11.2151C9.30728 9.85072 8.67673 9.20492 7.38011 9.20492H1.93606C0.630551 9.20492 0 9.85072 0 11.2151V14.9898C0 16.3542 0.630551 17 1.93606 17ZM12.6199 17H18.0728C19.3694 17 20 16.3542 20 14.9898V11.2151C20 9.85072 19.3694 9.20492 18.0728 9.20492H12.6199C11.3233 9.20492 10.6927 9.85072 10.6927 11.2151V14.9898C10.6927 16.3542 11.3233 17 12.6199 17ZM1.93606 15.481C1.62522 15.481 1.48313 15.3264 1.48313 14.9989V11.2151C1.48313 10.8785 1.62522 10.7239 1.93606 10.7239H7.36234C7.67318 10.7239 7.83304 10.8785 7.83304 11.2151V14.9989C7.83304 15.3264 7.67318 15.481 7.36234 15.481H1.93606ZM12.6377 15.481C12.3179 15.481 12.167 15.3264 12.167 14.9989V11.2151C12.167 10.8785 12.3179 10.7239 12.6377 10.7239H18.0639C18.3748 10.7239 18.5169 10.8785 18.5169 11.2151V14.9989C18.5169 15.3264 18.3748 15.481 18.0639 15.481H12.6377Z"/>
</svg>
