<svg width="20" height="20" viewBox="0 0 20 20" fill="none" xmlns="http://www.w3.org/2000/svg">
<path d="M1.93606 9.33654H7.38011C8.67673 9.33654 9.30728 8.72873 9.30728 7.44462V3.89192C9.30728 2.60781 8.67673 2 7.38011 2H1.93606C0.630551 2 0 2.60781 0 3.89192V7.44462C0 8.72873 0.630551 9.33654 1.93606 9.33654ZM12.6199 9.33654H18.0728C19.3694 9.33654 20 8.72873 20 7.44462V3.89192C20 2.60781 19.3694 2 18.0728 2H12.6199C11.3233 2 10.6927 2.60781 10.6927 3.89192V7.44462C10.6927 8.72873 11.3233 9.33654 12.6199 9.33654ZM1.93606 7.9069C1.62522 7.9069 1.48313 7.75281 1.48313 7.44462V3.88336C1.48313 3.57517 1.62522 3.42108 1.93606 3.42108H7.36234C7.67318 3.42108 7.83304 3.57517 7.83304 3.88336V7.44462C7.83304 7.75281 7.67318 7.9069 7.36234 7.9069H1.93606ZM12.6377 7.9069C12.3179 7.9069 12.167 7.75281 12.167 7.44462V3.88336C12.167 3.57517 12.3179 3.42108 12.6377 3.42108H18.0639C18.3748 3.42108 18.5169 3.57517 18.5169 3.88336V7.44462C18.5169 7.75281 18.3748 7.9069 18.0639 7.9069H12.6377ZM1.93606 18H7.38011C8.67673 18 9.30728 17.3922 9.30728 16.1081V12.5554C9.30728 11.2713 8.67673 10.6635 7.38011 10.6635H1.93606C0.630551 10.6635 0 11.2713 0 12.5554V16.1081C0 17.3922 0.630551 18 1.93606 18ZM12.6199 18H18.0728C19.3694 18 20 17.3922 20 16.1081V12.5554C20 11.2713 19.3694 10.6635 18.0728 10.6635H12.6199C11.3233 10.6635 10.6927 11.2713 10.6927 12.5554V16.1081C10.6927 17.3922 11.3233 18 12.6199 18ZM1.93606 16.5704C1.62522 16.5704 1.48313 16.4248 1.48313 16.1166V12.5554C1.48313 12.2386 1.62522 12.0931 1.93606 12.0931H7.36234C7.67318 12.0931 7.83304 12.2386 7.83304 12.5554V16.1166C7.83304 16.4248 7.67318 16.5704 7.36234 16.5704H1.93606ZM12.6377 16.5704C12.3179 16.5704 12.167 16.4248 12.167 16.1166V12.5554C12.167 12.2386 12.3179 12.0931 12.6377 12.0931H18.0639C18.3748 12.0931 18.5169 12.2386 18.5169 12.5554V16.1166C18.5169 16.4248 18.3748 16.5704 18.0639 16.5704H12.6377Z" />
</svg>
