<svg width="10" height="10" viewBox="0 0 10 10" fill="none" xmlns="http://www.w3.org/2000/svg">
<path d="M9.5 1H2.5C2.23478 1 1.98043 1.10536 1.79289 1.29289C1.60536 1.48043 1.5 1.73478 1.5 2C1.5 2.26522 1.60536 2.51957 1.79289 2.70711C1.98043 2.89464 2.23478 3 2.5 3H9.5V9.5C9.5 9.63261 9.44732 9.75979 9.35355 9.85355C9.25979 9.94732 9.13261 10 9 10H2.5C1.96957 10 1.46086 9.78929 1.08579 9.41421C0.710714 9.03914 0.5 8.53043 0.5 8V2C0.5 1.46957 0.710714 0.960859 1.08579 0.585786C1.46086 0.210714 1.96957 0 2.5 0H9C9.13261 0 9.25979 0.0526784 9.35355 0.146447C9.44732 0.240215 9.5 0.367392 9.5 0.5V1ZM1.5 8C1.5 8.26522 1.60536 8.51957 1.79289 8.70711C1.98043 8.89464 2.23478 9 2.5 9H8.5V4H2.5C2.14891 4.00056 1.80392 3.90828 1.5 3.7325V8ZM9 2.5H2.5C2.36739 2.5 2.24021 2.44732 2.14645 2.35355C2.05268 2.25979 2 2.13261 2 2C2 1.86739 2.05268 1.74021 2.14645 1.64645C2.24021 1.55268 2.36739 1.5 2.5 1.5H9V2.5Z"/>
</svg>
