<svg width="13" height="16" viewBox="0 0 13 16" fill="none" xmlns="http://www.w3.org/2000/svg">
<path d="M2.2611 16H10.5389C12.0411 16 12.8 15.2492 12.8 13.7851V6.74237C12.8 5.93149 12.6916 5.57109 12.1805 5.06053L7.62734 0.600657C7.13176 0.112623 6.7291 0 5.97798 0H2.2611C0.77435 0 0 0.743313 0 2.20741V13.7851C0 15.2492 0.766606 16 2.2611 16ZM2.30756 15.069C1.41706 15.069 0.960194 14.611 0.960194 13.7626V2.22994C0.960194 1.40404 1.41706 0.92351 2.31531 0.92351H5.93152V5.44345C5.93152 6.29939 6.38064 6.70483 7.24017 6.70483H11.8476V13.7626C11.8476 14.611 11.3829 15.069 10.4924 15.069H2.30756ZM7.34084 5.82637C6.98463 5.82637 6.83751 5.69122 6.83751 5.34585V1.11122L11.654 5.82637H7.34084Z"/>
</svg>
