<svg width="11" height="15" viewBox="0 0 11 15" fill="none" xmlns="http://www.w3.org/2000/svg">
<path d="M10.5322 13.4697C10.5322 13.1074 10.2793 12.8477 9.92383 12.8477H5.65137C5.80176 12.834 5.94531 12.7588 6.05469 12.6426L10.334 8.35645C10.4707 8.21289 10.5322 8.06934 10.5322 7.89844C10.5322 7.55664 10.2725 7.29004 9.93066 7.29004C9.75977 7.29004 9.5957 7.35156 9.48633 7.46777L8.00977 8.91699L6.16406 10.9609L6.21191 9.57324V1.22656C6.21191 0.857422 5.95898 0.604492 5.58984 0.604492C5.2207 0.604492 4.96777 0.857422 4.96777 1.22656V9.57324L5.01562 10.9541L3.16992 8.91699L1.69336 7.46777C1.58398 7.35156 1.41992 7.29004 1.24902 7.29004C0.907227 7.29004 0.647461 7.55664 0.647461 7.89844C0.647461 8.06934 0.708984 8.21289 0.845703 8.35645L5.125 12.6426C5.24121 12.7588 5.37793 12.834 5.52832 12.8477H1.2627C0.907227 12.8477 0.647461 13.1074 0.647461 13.4697C0.647461 13.8252 0.907227 14.0918 1.2627 14.0918H9.92383C10.2793 14.0918 10.5322 13.8252 10.5322 13.4697Z"/>
</svg>
