<svg width="20" height="20" viewBox="0 0 20 20" fill="none" xmlns="http://www.w3.org/2000/svg">
<path d="M5.336 14.8017C5.50128 14.3333 5.80779 13.9277 6.21328 13.6407C6.61877 13.3538 7.10327 13.1998 7.6 13.1998C8.09673 13.1998 8.58123 13.3538 8.98672 13.6407C9.39221 13.9277 9.69872 14.3333 9.864 14.8017H18V16.4017H9.864C9.69872 16.8701 9.39221 17.2758 8.98672 17.5627C8.58123 17.8496 8.09673 18.0037 7.6 18.0037C7.10327 18.0037 6.61877 17.8496 6.21328 17.5627C5.80779 17.2758 5.50128 16.8701 5.336 16.4017H2V14.8017H5.336ZM10.136 9.20172C10.3013 8.73329 10.6078 8.32766 11.0133 8.04075C11.4188 7.75383 11.9033 7.59975 12.4 7.59975C12.8967 7.59975 13.3812 7.75383 13.7867 8.04075C14.1922 8.32766 14.4987 8.73329 14.664 9.20172H18V10.8017H14.664C14.4987 11.2701 14.1922 11.6758 13.7867 11.9627C13.3812 12.2496 12.8967 12.4037 12.4 12.4037C11.9033 12.4037 11.4188 12.2496 11.0133 11.9627C10.6078 11.6758 10.3013 11.2701 10.136 10.8017H2V9.20172H10.136ZM5.336 3.60172C5.50128 3.13329 5.80779 2.72766 6.21328 2.44075C6.61877 2.15383 7.10327 1.99976 7.6 1.99976C8.09673 1.99976 8.58123 2.15383 8.98672 2.44075C9.39221 2.72766 9.69872 3.13329 9.864 3.60172H18V5.20172H9.864C9.69872 5.67014 9.39221 6.07577 8.98672 6.36268C8.58123 6.6496 8.09673 6.80368 7.6 6.80368C7.10327 6.80368 6.61877 6.6496 6.21328 6.36268C5.80779 6.07577 5.50128 5.67014 5.336 5.20172H2V3.60172H5.336ZM7.6 5.20172C7.81217 5.20172 8.01566 5.11743 8.16569 4.9674C8.31571 4.81737 8.4 4.61389 8.4 4.40172C8.4 4.18954 8.31571 3.98606 8.16569 3.83603C8.01566 3.686 7.81217 3.60172 7.6 3.60172C7.38783 3.60172 7.18434 3.686 7.03431 3.83603C6.88429 3.98606 6.8 4.18954 6.8 4.40172C6.8 4.61389 6.88429 4.81737 7.03431 4.9674C7.18434 5.11743 7.38783 5.20172 7.6 5.20172ZM12.4 10.8017C12.6122 10.8017 12.8157 10.7174 12.9657 10.5674C13.1157 10.4174 13.2 10.2139 13.2 10.0017C13.2 9.78954 13.1157 9.58606 12.9657 9.43603C12.8157 9.286 12.6122 9.20172 12.4 9.20172C12.1878 9.20172 11.9843 9.286 11.8343 9.43603C11.6843 9.58606 11.6 9.78954 11.6 10.0017C11.6 10.2139 11.6843 10.4174 11.8343 10.5674C11.9843 10.7174 12.1878 10.8017 12.4 10.8017ZM7.6 16.4017C7.81217 16.4017 8.01566 16.3174 8.16569 16.1674C8.31571 16.0174 8.4 15.8139 8.4 15.6017C8.4 15.3895 8.31571 15.1861 8.16569 15.036C8.01566 14.886 7.81217 14.8017 7.6 14.8017C7.38783 14.8017 7.18434 14.886 7.03431 15.036C6.88429 15.1861 6.8 15.3895 6.8 15.6017C6.8 15.8139 6.88429 16.0174 7.03431 16.1674C7.18434 16.3174 7.38783 16.4017 7.6 16.4017Z" />
</svg>
