<svg width="17" height="16" viewBox="0 0 17 16" fill="none" xmlns="http://www.w3.org/2000/svg">
<path d="M3.76878 12.7988C3.93402 12.3305 4.24045 11.925 4.64584 11.6381C5.05123 11.3513 5.53561 11.1973 6.03222 11.1973C6.52883 11.1973 7.01321 11.3513 7.4186 11.6381C7.82399 11.925 8.13043 12.3305 8.29567 12.7988H16.4297V14.3984H8.29567C8.13043 14.8667 7.82399 15.2723 7.4186 15.5591C7.01321 15.846 6.52883 16 6.03222 16C5.53561 16 5.05123 15.846 4.64584 15.5591C4.24045 15.2723 3.93402 14.8667 3.76878 14.3984H0.433594V12.7988H3.76878ZM8.5676 7.2002C8.73284 6.73188 9.03928 6.32636 9.44466 6.03951C9.85005 5.75267 10.3344 5.59863 10.831 5.59863C11.3277 5.59863 11.812 5.75267 12.2174 6.03951C12.6228 6.32636 12.9292 6.73188 13.0945 7.2002H16.4297V8.7998H13.0945C12.9292 9.26812 12.6228 9.67364 12.2174 9.96049C11.812 10.2473 11.3277 10.4014 10.831 10.4014C10.3344 10.4014 9.85005 10.2473 9.44466 9.96049C9.03928 9.67364 8.73284 9.26812 8.5676 8.7998H0.433594V7.2002H8.5676ZM3.76878 1.60157C3.93402 1.13326 4.24045 0.727729 4.64584 0.440884C5.05123 0.154039 5.53561 0 6.03222 0C6.52883 0 7.01321 0.154039 7.4186 0.440884C7.82399 0.727729 8.13043 1.13326 8.29567 1.60157H16.4297V3.20118H8.29567C8.13043 3.66949 7.82399 4.07501 7.4186 4.36186C7.01321 4.6487 6.52883 4.80274 6.03222 4.80274C5.53561 4.80274 5.05123 4.6487 4.64584 4.36186C4.24045 4.07501 3.93402 3.66949 3.76878 3.20118H0.433594V1.60157H3.76878ZM6.03222 3.20118C6.24434 3.20118 6.44778 3.11691 6.59777 2.96692C6.74776 2.81693 6.83203 2.61349 6.83203 2.40137C6.83203 2.18925 6.74776 1.98582 6.59777 1.83583C6.44778 1.68583 6.24434 1.60157 6.03222 1.60157C5.8201 1.60157 5.61667 1.68583 5.46667 1.83583C5.31668 1.98582 5.23242 2.18925 5.23242 2.40137C5.23242 2.61349 5.31668 2.81693 5.46667 2.96692C5.61667 3.11691 5.8201 3.20118 6.03222 3.20118ZM10.831 8.7998C11.0432 8.7998 11.2466 8.71554 11.3966 8.56555C11.5466 8.41555 11.6308 8.21212 11.6308 8C11.6308 7.78788 11.5466 7.58445 11.3966 7.43445C11.2466 7.28446 11.0432 7.2002 10.831 7.2002C10.6189 7.2002 10.4155 7.28446 10.2655 7.43445C10.1155 7.58445 10.0312 7.78788 10.0312 8C10.0312 8.21212 10.1155 8.41555 10.2655 8.56555C10.4155 8.71554 10.6189 8.7998 10.831 8.7998ZM6.03222 14.3984C6.24434 14.3984 6.44778 14.3142 6.59777 14.1642C6.74776 14.0142 6.83203 13.8107 6.83203 13.5986C6.83203 13.3865 6.74776 13.1831 6.59777 13.0331C6.44778 12.8831 6.24434 12.7988 6.03222 12.7988C5.8201 12.7988 5.61667 12.8831 5.46667 13.0331C5.31668 13.1831 5.23242 13.3865 5.23242 13.5986C5.23242 13.8107 5.31668 14.0142 5.46667 14.1642C5.61667 14.3142 5.8201 14.3984 6.03222 14.3984Z" fill="#536D85"/>
</svg>
