<svg width="24" height="24" viewBox="0 0 24 24" fill="none" xmlns="http://www.w3.org/2000/svg">
<path d="M11.9997 11.0625C11.9997 11.3111 12.0985 11.5496 12.2743 11.7254C12.4501 11.9012 12.6886 12 12.9372 12C13.1858 12 13.4243 11.9012 13.6001 11.7254C13.7759 11.5496 13.8747 11.3111 13.8747 11.0625C13.8747 10.8139 13.7759 10.5754 13.6001 10.3996C13.4243 10.2238 13.1858 10.125 12.9372 10.125C12.6886 10.125 12.4501 10.2238 12.2743 10.3996C12.0985 10.5754 11.9997 10.8139 11.9997 11.0625ZM20.6013 19.3336L16.3192 8.25V4.17188H17.9997V2.57812H5.99971V4.17188H7.68018V8.25L3.39814 19.3336C3.33252 19.507 3.29736 19.6898 3.29736 19.875C3.29736 20.7023 3.97002 21.375 4.79736 21.375H19.2021C19.3872 21.375 19.57 21.3398 19.7435 21.2742C20.5169 20.9766 20.9013 20.107 20.6013 19.3336ZM9.27393 8.54766V4.21875H14.7255V8.54766L16.856 14.0625C16.3708 13.9383 15.8692 13.875 15.3583 13.875C13.9239 13.875 12.5646 14.3789 11.4841 15.2812C10.6866 15.9474 9.68019 16.3117 8.64111 16.3102C7.87471 16.3102 7.13877 16.1156 6.48955 15.7547L9.27393 8.54766ZM4.9333 19.7812L5.91064 17.2547C6.74736 17.6789 7.67783 17.9062 8.64346 17.9062C10.0778 17.9062 11.4372 17.4023 12.5177 16.5C13.3122 15.8391 14.306 15.4711 15.3606 15.4711C16.181 15.4711 16.9638 15.6938 17.6481 16.1063L19.0661 19.7812H4.9333Z" />
</svg>
