<svg width="61" height="56" viewBox="0 0 61 56" fill="none" xmlns="http://www.w3.org/2000/svg">
<path d="M0.200195 17.81C0.226679 17.6848 0.243395 17.5578 0.250195 17.43C0.399489 14.6553 1.2196 11.9582 2.64019 9.56999C4.26498 6.76302 6.54269 4.38926 9.2802 2.64999C10.2599 2.01012 11.3232 1.50871 12.4402 1.15999C12.9959 0.973851 13.5748 0.866146 14.1602 0.839994C14.3 0.830182 14.4404 0.830182 14.5802 0.839994C14.6472 0.845045 14.7126 0.863305 14.7726 0.893722C14.8326 0.924139 14.8859 0.966114 14.9296 1.01723C14.9733 1.06835 15.0064 1.1276 15.0271 1.19157C15.0478 1.25554 15.0557 1.32298 15.0502 1.38999C15.063 1.72531 15.0362 2.06097 14.9702 2.38999C14.8402 3.09999 14.6902 3.81999 14.5702 4.52999C14.4502 5.23999 14.2902 6.19999 14.1702 7.02999C14.0802 7.67999 14.0102 8.33999 13.9502 9.02999C13.8902 9.71999 13.8402 10.26 13.8202 10.88C13.8202 11.66 13.8202 12.44 13.8202 13.22C13.8202 14.22 13.8902 15.22 13.9502 16.22C13.9502 16.89 14.0402 17.56 14.1102 18.22C14.1802 18.88 14.2502 19.67 14.3302 20.39L14.5402 22.39C14.6202 23.05 14.6902 23.7 14.7602 24.39C14.8302 25.08 14.8702 25.46 14.9202 26C14.9202 26.13 14.9202 26.26 14.9202 26.39C14.9172 26.4433 14.9172 26.4967 14.9202 26.55L15.1502 26.42C16.4574 25.6778 17.8606 25.1192 19.3202 24.76C20.3033 24.5169 21.3084 24.3729 22.3202 24.33C23.6624 24.2513 25.009 24.3624 26.3202 24.66C27.5364 24.922 28.6864 25.429 29.7002 26.15C30.0633 26.4 30.3986 26.6884 30.7002 27.01C30.7305 27.0445 30.7681 27.0718 30.8102 27.09C30.8102 26.92 30.8102 26.74 30.7202 26.57C30.5042 25.4659 30.0579 24.4198 29.4102 23.5L29.0002 22.9C28.7502 22.53 28.8002 22.29 29.1702 22.07C29.8043 21.6751 30.4739 21.3404 31.1702 21.07C31.3705 20.9916 31.5854 20.9575 31.8002 20.97C31.8777 20.9708 31.954 20.9892 32.0233 21.0238C32.0926 21.0585 32.1531 21.1085 32.2002 21.17C32.4409 21.4735 32.6363 21.8103 32.7802 22.17C33.0128 22.7924 33.1869 23.4352 33.3002 24.09C33.4441 24.8742 33.5475 25.6652 33.6102 26.46C33.6102 27.17 33.6902 27.89 33.7002 28.61C33.6957 28.6766 33.6957 28.7434 33.7002 28.81H33.9002C34.6802 28.66 35.4502 28.49 36.2402 28.36C37.2143 28.195 38.2044 28.1446 39.1902 28.21H39.7202L39.6302 28.04C38.8885 26.8042 38.304 25.4806 37.8902 24.1C37.6113 23.1576 37.4074 22.1946 37.2802 21.22C37.1169 19.9771 37.0634 18.7223 37.1202 17.47C37.1809 15.9635 37.4502 14.4726 37.9202 13.04C38.5643 11.0548 39.5379 9.19207 40.8002 7.52999C42.2641 5.5751 44.0699 3.90143 46.1302 2.58999C47.008 2.0161 47.9514 1.54944 48.9402 1.19999C49.5294 0.981264 50.1446 0.840081 50.7702 0.779994C51.0022 0.745048 51.2382 0.745048 51.4702 0.779994C51.6012 0.79268 51.7219 0.856485 51.8061 0.957572C51.8903 1.05866 51.9313 1.18888 51.9202 1.31999C51.9451 1.56269 51.9451 1.80729 51.9202 2.04999C51.8202 2.67999 51.6902 3.29999 51.5802 3.92999C51.4302 4.76999 51.2702 5.60999 51.1502 6.45999C51.0302 7.30999 50.9402 8.02999 50.8702 8.80999C50.8002 9.58999 50.7702 10.08 50.7402 10.71C50.6884 11.7093 50.6884 12.7107 50.7402 13.71C50.7402 14.59 50.8102 15.47 50.8702 16.35C50.8702 17.01 50.9702 17.68 51.0302 18.35C51.0902 19.02 51.1702 19.77 51.2502 20.49L51.4302 22.19C51.5002 22.76 51.5602 23.32 51.6302 23.89L51.7502 25.12C51.7502 25.21 51.7502 25.3 51.7502 25.42L51.8902 25.3C52.8902 24.36 54.0002 23.46 55.1102 22.61C56.0736 21.8899 57.075 21.2223 58.1102 20.61C58.4158 20.4114 58.7544 20.2691 59.1102 20.19C59.2981 20.15 59.4923 20.15 59.6802 20.19C59.8344 20.2226 59.9743 20.303 60.0802 20.4197C60.1861 20.5363 60.2526 20.6834 60.2702 20.84C60.2908 20.9681 60.2806 21.0992 60.2407 21.2227C60.2007 21.3461 60.132 21.4583 60.0402 21.55C59.8403 21.7572 59.6152 21.9387 59.3702 22.09C58.5502 22.59 57.7602 23.09 56.9902 23.69C55.2139 24.9463 53.5449 26.3478 52.0002 27.88C51.9707 27.9058 51.948 27.9384 51.9341 27.9751C51.9201 28.0117 51.9154 28.0511 51.9202 28.09C51.9202 28.57 51.9902 29.09 52.0202 29.53C52.0202 30.36 52.1202 31.18 52.1602 32C52.2302 33.55 52.2802 35.09 52.2202 36.63C52.1969 37.5766 52.1235 38.5212 52.0002 39.46C51.7505 41.3918 51.3493 43.3011 50.8002 45.17C50.3586 46.6981 49.79 48.1867 49.1002 49.62C48.5995 50.6827 47.9859 51.6885 47.2702 52.62C46.8466 53.1745 46.36 53.6779 45.8202 54.12C45.3103 54.5396 44.7173 54.8464 44.0802 55.02C43.9402 55.02 43.8102 55.02 43.6802 55.1H43.5602H42.8602H42.7702C41.9831 54.9943 41.2669 54.5897 40.7702 53.97C40.4438 53.5856 40.1836 53.1497 40.0002 52.68C39.6456 51.7188 39.4563 50.7044 39.4402 49.68C39.4067 48.7918 39.4435 47.9024 39.5502 47.02C39.6586 46.0098 39.8322 45.0077 40.0702 44.02C40.5576 42.0157 41.2548 40.0683 42.1502 38.21C42.8222 36.8078 43.5803 35.4485 44.4202 34.14L44.5302 33.95C44.4707 33.9148 44.4168 33.871 44.3702 33.82C43.1649 32.6639 42.039 31.4278 41.0002 30.12C40.9631 30.064 40.9057 30.0246 40.8402 30.01C40.2573 29.8875 39.6653 29.8139 39.0702 29.79C38.2972 29.7698 37.5241 29.8201 36.7602 29.94C35.7475 30.111 34.7458 30.3414 33.7602 30.63C33.6802 30.63 33.6602 30.69 33.6502 30.77C33.6502 31.22 33.5602 31.66 33.5002 32.11C33.3946 32.7351 33.2271 33.3481 33.0002 33.94C32.9178 34.2113 32.793 34.4678 32.6302 34.7C32.5387 34.8402 32.4154 34.9567 32.2702 35.04C32.1981 35.0842 32.1173 35.1123 32.0333 35.1225C31.9493 35.1327 31.8641 35.1247 31.7835 35.0991C31.7029 35.0735 31.6288 35.0309 31.5661 34.9741C31.5034 34.9173 31.4536 34.8477 31.4202 34.77C31.3893 34.6983 31.3625 34.6248 31.3402 34.55C31.2595 34.2631 31.2126 33.9678 31.2002 33.67C31.2002 32.9 31.1402 32.14 31.1102 31.37C31.1052 31.3201 31.1052 31.2699 31.1102 31.22H31.0002L30.2302 31.34C29.5688 31.4497 28.9005 31.5132 28.2302 31.53C27.5107 31.57 26.7896 31.57 26.0702 31.53C25.3408 31.4751 24.6179 31.3546 23.9102 31.17C23.1296 30.9818 22.3814 30.6785 21.6902 30.27C21.2261 29.9888 20.8135 29.6303 20.4702 29.21C20.2025 28.8732 20.0104 28.4828 19.9069 28.0653C19.8034 27.6477 19.7908 27.2128 19.8702 26.79C19.8759 26.7435 19.8759 26.6965 19.8702 26.65L18.8702 26.93C17.5693 27.3357 16.3359 27.9322 15.2102 28.7C15.1708 28.7173 15.1384 28.7476 15.1184 28.7857C15.0984 28.8239 15.092 28.8677 15.1002 28.91C15.1002 29.31 15.1002 29.7 15.1702 30.1C15.1702 31.04 15.2702 31.98 15.3102 32.92C15.3102 33.4 15.3102 33.92 15.3102 34.37C15.3587 35.8288 15.3018 37.2893 15.1402 38.74C15.0502 39.53 14.9302 40.33 14.8002 41.11C14.5401 42.6603 14.1725 44.1907 13.7002 45.69C13.2159 47.2874 12.5866 48.8372 11.8202 50.32C11.3424 51.2533 10.7694 52.1346 10.1102 52.95C9.65556 53.5214 9.1199 54.0234 8.5202 54.44C8.01409 54.7968 7.43809 55.0422 6.83019 55.16H6.60019H6.00019H5.89019C5.68342 55.1298 5.47943 55.083 5.2802 55.02C4.55728 54.7819 3.94128 54.2969 3.5402 53.65C3.24262 53.1866 3.01674 52.6809 2.8702 52.15C2.61768 51.2315 2.49317 50.2825 2.50019 49.33C2.51135 48.4367 2.57815 47.545 2.7002 46.66C2.82732 45.6505 3.01094 44.6489 3.25019 43.66C4.04185 40.2218 5.43677 36.9512 7.3702 34L7.46019 33.86L7.38019 33.76C7.03019 33.4 6.67019 33.05 6.33019 32.68C5.33304 31.6461 4.41385 30.5397 3.58019 29.37C2.43848 27.7767 1.56683 26.0064 1.00019 24.13C0.641489 22.9105 0.410251 21.6572 0.310194 20.39C0.310194 19.98 0.250194 19.56 0.220194 19.15C0.225019 19.0934 0.225019 19.0366 0.220194 18.98L0.200195 17.81ZM45.7702 32.11L45.8402 32.03C46.4102 31.24 47.0002 30.47 47.6302 29.72C47.6427 29.6934 47.6492 29.6644 47.6492 29.635C47.6492 29.6056 47.6427 29.5766 47.6302 29.55C47.4602 28.55 47.2802 27.55 47.1102 26.61C46.8402 25.05 46.5902 23.49 46.4402 21.92C46.3702 21.18 46.3102 20.44 46.2802 19.7C46.2435 18.5862 46.2668 17.4713 46.3502 16.36C46.4202 15.48 46.5202 14.6 46.6602 13.73C46.9091 12.1876 47.2632 10.664 47.7202 9.16999C48.1402 7.81999 48.6502 6.49999 49.1602 5.16999L49.9402 3.16999C49.982 3.06422 50.0089 2.95316 50.0202 2.83999C50.0202 2.70999 50.0202 2.63999 49.8302 2.62999C49.7037 2.62027 49.5767 2.62027 49.4502 2.62999C48.9557 2.73256 48.4823 2.91855 48.0502 3.17999C47.1732 3.71201 46.3922 4.38816 45.7402 5.17999C44.8033 6.27609 44.0133 7.48965 43.3902 8.78999C42.0287 11.5988 41.2918 14.6692 41.2302 17.79C41.2302 18.72 41.2302 19.65 41.3102 20.58C41.3663 21.4555 41.4731 22.3269 41.6302 23.19C41.8829 24.599 42.2956 25.9746 42.8602 27.29C43.4891 28.7385 44.2808 30.1107 45.2202 31.38C45.4202 31.64 45.5902 31.87 45.7702 32.11ZM8.84019 32C8.92019 31.89 9.01019 31.79 9.09019 31.69C9.6102 31.05 10.1602 30.44 10.7402 29.85C10.7737 29.823 10.799 29.7871 10.8131 29.7465C10.8273 29.7058 10.8297 29.662 10.8202 29.62C10.7502 29.32 10.7002 29.01 10.6502 28.7C10.4402 27.48 10.2202 26.26 10.0202 25.04C9.8202 23.82 9.68019 22.67 9.57019 21.48C9.50019 20.71 9.4502 19.93 9.4402 19.16C9.42323 18.159 9.45661 17.1577 9.5402 16.16C9.6102 15.28 9.72019 14.41 9.8602 13.54C10.114 12.038 10.4681 10.5547 10.9202 9.09999C11.3402 7.73999 11.8602 6.40999 12.3702 5.09999C12.6202 4.46999 12.8702 3.83999 13.1102 3.20999C13.151 3.10044 13.1778 2.98622 13.1902 2.86999C13.1902 2.72999 13.1902 2.65999 13.0102 2.64999C12.8837 2.63978 12.7567 2.63978 12.6302 2.64999C12.1823 2.72978 11.7522 2.88894 11.3602 3.11999C10.7108 3.48223 10.1151 3.93324 9.59019 4.45999C8.71071 5.32509 7.95066 6.30374 7.33019 7.36999C5.54416 10.4097 4.54401 13.8466 4.42019 17.37C4.36013 18.4058 4.36013 19.4442 4.42019 20.48C4.47643 21.4464 4.59333 22.4083 4.7702 23.36C5.05712 24.9356 5.5444 26.468 6.22019 27.92C6.90844 29.3522 7.74288 30.7094 8.71019 31.97L8.84019 32ZM11.2702 32.3L11.1502 32.43C10.5897 33.0979 10.0656 33.7956 9.58019 34.52C7.33954 37.8453 5.86413 41.626 5.26019 45.59C5.11039 46.5089 5.04013 47.439 5.05019 48.37C5.04789 48.8232 5.09145 49.2755 5.18019 49.72C5.25099 50.1361 5.39669 50.5359 5.6102 50.9C5.80615 51.2384 6.10866 51.5024 6.47048 51.6507C6.83231 51.7991 7.23307 51.8234 7.6102 51.72C8.09906 51.609 8.54847 51.3671 8.91019 51.02C9.3394 50.6236 9.70681 50.1652 10.0002 49.66C10.5322 48.7604 10.9457 47.7957 11.2302 46.79C11.7102 44.9983 11.9688 43.1546 12.0002 41.3C12.0801 40.1147 12.0801 38.9253 12.0002 37.74C11.9402 36.99 11.8802 36.24 11.7802 35.49C11.6802 34.74 11.5402 33.7 11.4102 32.8C11.3402 32.65 11.3002 32.49 11.2702 32.3ZM48.1602 32.44C48.0002 32.64 47.8502 32.85 47.7002 33.06C46.2284 35.114 44.9686 37.3119 43.9402 39.62C43.0752 41.5315 42.4666 43.549 42.1302 45.62C41.9801 46.5521 41.9198 47.4964 41.9502 48.44C41.9619 48.9557 42.029 49.4686 42.1502 49.97C42.2381 50.372 42.4046 50.7526 42.6402 51.09C42.8758 51.4327 43.2336 51.6724 43.6402 51.76C43.9741 51.8219 44.3182 51.7978 44.6402 51.69C45.1162 51.524 45.5475 51.2502 45.9002 50.89C46.391 50.3985 46.7995 49.8312 47.1102 49.21C47.6572 48.1516 48.0608 47.025 48.3102 45.86C48.6821 44.2189 48.8766 42.5426 48.8902 40.86C48.9168 39.7623 48.8834 38.664 48.7902 37.57C48.7302 36.92 48.6702 36.27 48.5902 35.57C48.4802 34.67 48.3502 33.78 48.2202 32.89C48.2202 32.75 48.1902 32.59 48.1602 32.44ZM30.7402 29.34C30.7012 29.2714 30.6542 29.2076 30.6002 29.15C30.0122 28.3654 29.2603 27.7183 28.3968 27.2537C27.5333 26.7892 26.579 26.5183 25.6002 26.46C25.2226 26.4179 24.8405 26.473 24.4902 26.62C24.2635 26.7097 24.0775 26.8792 23.967 27.0965C23.8565 27.3138 23.8292 27.564 23.8902 27.8C23.9535 28.1188 24.1314 28.4034 24.3902 28.6C24.6294 28.7968 24.8998 28.9523 25.1902 29.06C25.8311 29.3041 26.5056 29.4491 27.1902 29.49C28.169 29.5834 29.1552 29.5666 30.1302 29.44L30.7402 29.34Z" fill="white"/>
</svg>
