<svg width="20" height="16" viewBox="0 0 20 16" fill="none" xmlns="http://www.w3.org/2000/svg">
    <path d="M1.37397 3.00132C2.13836 3.00132 2.74794 2.33553 2.74794 1.50066C2.74794 0.676354 2.13836 0 1.37397 0C0.619255 0 0 0.676354 0 1.50066C0 2.33553 0.619255 3.00132 1.37397 3.00132ZM5.92163 2.51519H19.0614C19.5839 2.51519 20 2.07133 20 1.50066C20 0.929987 19.5936 0.486129 19.0614 0.486129H5.92163C5.4088 0.486129 4.99274 0.929987 4.99274 1.50066C4.99274 2.07133 5.39913 2.51519 5.92163 2.51519ZM1.37397 9.50066C2.13836 9.50066 2.74794 8.83487 2.74794 8C2.74794 7.17569 2.13836 6.49934 1.37397 6.49934C0.619255 6.49934 0 7.17569 0 8C0 8.83487 0.619255 9.50066 1.37397 9.50066ZM5.92163 9.01453H19.0614C19.5839 9.01453 20 8.57067 20 8C20 7.42933 19.5936 6.98547 19.0614 6.98547H5.92163C5.4088 6.98547 4.99274 7.42933 4.99274 8C4.99274 8.57067 5.39913 9.01453 5.92163 9.01453ZM1.37397 16C2.13836 16 2.74794 15.3342 2.74794 14.4993C2.74794 13.675 2.13836 12.9987 1.37397 12.9987C0.619255 12.9987 0 13.675 0 14.4993C0 15.3342 0.619255 16 1.37397 16ZM5.92163 15.5139H19.0614C19.5839 15.5139 20 15.07 20 14.4993C20 13.9287 19.5936 13.4848 19.0614 13.4848H5.92163C5.4088 13.4848 4.99274 13.9287 4.99274 14.4993C4.99274 15.07 5.39913 15.5139 5.92163 15.5139Z" />
</svg>
