<svg width="19" height="13" viewBox="0 0 19 13" fill="none" xmlns="http://www.w3.org/2000/svg">
    <path d="M1.30527 2.43857C2.03145 2.43857 2.61055 1.89762 2.61055 1.21929C2.61055 0.549538 2.03145 0 1.30527 0C0.588292 0 0 0.549538 0 1.21929C0 1.89762 0.588292 2.43857 1.30527 2.43857ZM5.62554 2.04359H18.1084C18.6047 2.04359 19 1.68296 19 1.21929C19 0.755614 18.6139 0.39498 18.1084 0.39498H5.62554C5.13836 0.39498 4.74311 0.755614 4.74311 1.21929C4.74311 1.68296 5.12917 2.04359 5.62554 2.04359ZM1.30527 7.71929C2.03145 7.71929 2.61055 7.17834 2.61055 6.5C2.61055 5.83025 2.03145 5.28071 1.30527 5.28071C0.588292 5.28071 0 5.83025 0 6.5C0 7.17834 0.588292 7.71929 1.30527 7.71929ZM5.62554 7.32431H18.1084C18.6047 7.32431 19 6.96367 19 6.5C19 6.03633 18.6139 5.67569 18.1084 5.67569H5.62554C5.13836 5.67569 4.74311 6.03633 4.74311 6.5C4.74311 6.96367 5.12917 7.32431 5.62554 7.32431ZM1.30527 13C2.03145 13 2.61055 12.459 2.61055 11.7807C2.61055 11.111 2.03145 10.5614 1.30527 10.5614C0.588292 10.5614 0 11.111 0 11.7807C0 12.459 0.588292 13 1.30527 13ZM5.62554 12.605H18.1084C18.6047 12.605 19 12.2444 19 11.7807C19 11.317 18.6139 10.9564 18.1084 10.9564H5.62554C5.13836 10.9564 4.74311 11.317 4.74311 11.7807C4.74311 12.2444 5.12917 12.605 5.62554 12.605Z"/>
</svg>
