<svg width="20" height="20" viewBox="0 0 20 20" fill="none" xmlns="http://www.w3.org/2000/svg">
<path d="M9 9V6L14 10L9 14V11H0V9H9ZM0.458 13H2.582C3.28005 14.7191 4.55371 16.1422 6.18512 17.0259C7.81652 17.9097 9.70431 18.1991 11.5255 17.8447C13.3468 17.4904 14.9883 16.5142 16.1693 15.0832C17.3503 13.6523 17.9975 11.8554 18 10C18.001 8.14266 17.3558 6.34283 16.1749 4.90922C14.994 3.47561 13.3511 2.49756 11.528 2.14281C9.70482 1.78807 7.81505 2.07874 6.18278 2.96498C4.55051 3.85121 3.27747 5.27778 2.582 7H0.458C1.732 2.943 5.522 0 10 0C15.523 0 20 4.477 20 10C20 15.523 15.523 20 10 20C5.522 20 1.732 17.057 0.458 13Z"/>
</svg>
