<svg width="125" height="26" viewBox="0 0 125 26" fill="none" xmlns="http://www.w3.org/2000/svg">
<path d="M5.90529 0.290501H0V25.7095H4.00977V16.1592H5.90529C9.91506 16.1592 11.8835 13.9441 11.8835 9.87709V6.57263C11.8835 2.50558 9.91506 0.290501 5.90529 0.290501ZM4.00977 3.92179H5.90529C7.18113 3.92179 7.87373 4.50279 7.87373 6.31843V10.1313C7.87373 11.9469 7.18113 12.5279 5.90529 12.5279H4.00977V3.92179Z" fill="#F77600"/>
<path d="M13.5908 6.39106V19.6089C13.5908 23.676 15.7415 26 19.6783 26C23.6152 26 25.7659 23.676 25.7659 19.6089V6.39106C25.7659 2.32402 23.6152 0 19.6783 0C15.7415 0 13.5908 2.32402 13.5908 6.39106ZM17.6005 19.8631V6.13687C17.6005 4.32123 18.4025 3.63128 19.6783 3.63128C20.9542 3.63128 21.7561 4.32123 21.7561 6.13687V19.8631C21.7561 21.6788 20.9542 22.3687 19.6783 22.3687C18.4025 22.3687 17.6005 21.6788 17.6005 19.8631Z" fill="#F77600"/>
<path d="M40 16.2318H36.2089V19.8631C36.2089 21.6788 35.407 22.3324 34.1312 22.3324C32.8553 22.3324 32.0534 21.6788 32.0534 19.8631V6.13687C32.0534 4.32123 32.8553 3.63128 34.1312 3.63128C35.407 3.63128 36.2089 4.32123 36.2089 6.13687V8.86033H40V6.39106C40 2.32402 37.9587 0 34.0218 0C30.0849 0 28.0436 2.32402 28.0436 6.39106V19.6089C28.0436 23.676 30.0849 26 34.0218 26C37.9587 26 40 23.676 40 19.6089V16.2318Z" fill="#F77600"/>
<path d="M50.0337 0.254901H44.5601V25.7451H47.3505V15.6947H49.819C53.7901 15.6947 55.6504 13.5826 55.6504 9.54062V6.48179C55.6504 2.62185 53.969 0.254901 50.0337 0.254901ZM49.819 13.1457H47.3505V2.84034H50.0337C52.0729 2.84034 52.8957 4.0056 52.8957 6.33613V9.72269C52.8957 12.1625 51.894 13.1457 49.819 13.1457Z" fill="#243B50"/>
<path d="M60.3129 20.6106H66.6452L67.6111 25.7451H70.4016L65.6077 0.254901H61.5651L56.7712 25.7451H59.347L60.3129 20.6106ZM60.6707 18.1709L63.4254 3.45938L66.2516 18.1709H60.6707Z" fill="#243B50"/>
<path d="M78.1603 0.254901H72.5794V25.7451H75.3699V14.8571H77.3375C79.6629 14.8571 80.9866 15.7675 80.9866 18.6443V22.6499C80.9866 24.3613 81.1297 25.0168 81.4517 25.7451H84.2779C83.8128 24.8711 83.7771 23.8151 83.7771 22.6863V18.7171C83.7771 15.986 82.9184 14.0924 80.6288 13.4006C82.7753 12.7087 83.7413 10.9608 83.7413 8.15686V6.08123C83.7413 2.29412 82.0956 0.254901 78.1603 0.254901ZM77.4448 12.2717H75.3699V2.84034H78.0888C80.1637 2.84034 80.9866 4.04202 80.9866 6.33613V8.77591C80.9866 11.5434 79.6629 12.2717 77.4448 12.2717Z" fill="#243B50"/>
<path d="M91.9179 0C88.1615 0 86.3727 2.43977 86.3727 6.37255C86.3727 13.5462 94.7441 14.0924 94.7441 19.7731C94.7441 22.0672 93.814 23.4146 91.8106 23.4146C89.8071 23.4146 88.877 22.0672 88.877 19.7731V18.1709H86.2654V19.6275C86.2654 23.4874 88.0542 26 91.8821 26C95.7101 26 97.5346 23.4874 97.5346 19.6275C97.5346 12.4538 89.1274 11.9076 89.1274 6.19048C89.1274 3.93277 89.986 2.58543 91.9894 2.58543C93.9929 2.58543 94.8515 3.93277 94.8515 6.22689V7.06443H97.4988V6.37255C97.4988 2.5126 95.7101 0 91.9179 0Z" fill="#243B50"/>
<path d="M108.878 11.5434H102.76V2.84034H110.273V0.254901H99.9698V25.7451H110.273V23.1597H102.76V14.0924H108.878V11.5434Z" fill="#243B50"/>
<path d="M118.442 0.254901H112.862V25.7451H115.652V14.8571H117.62C119.945 14.8571 121.269 15.7675 121.269 18.6443V22.6499C121.269 24.3613 121.412 25.0168 121.734 25.7451H124.56C124.095 24.8711 124.059 23.8151 124.059 22.6863V18.7171C124.059 15.986 123.201 14.0924 120.911 13.4006C123.057 12.7087 124.023 10.9608 124.023 8.15686V6.08123C124.023 2.29412 122.378 0.254901 118.442 0.254901ZM117.727 12.2717H115.652V2.84034H118.371C120.446 2.84034 121.269 4.04202 121.269 6.33613V8.77591C121.269 11.5434 119.945 12.2717 117.727 12.2717Z" fill="#243B50"/>
</svg>
