<svg width="24" height="24" viewBox="0 0 24 24" fill="none" xmlns="http://www.w3.org/2000/svg">
<path d="M19.7109 8.67189C19.7812 8.59454 19.7742 8.47736 19.6968 8.40704C19.6617 8.37658 19.6171 8.35783 19.5726 8.35783H17.871C17.8148 8.35783 17.7632 8.38126 17.7281 8.42345L14.8476 11.8266C14.7796 11.9063 14.6624 11.9156 14.5828 11.8477C14.5617 11.8289 14.5453 11.8078 14.5335 11.782L13.0453 8.47033C13.0148 8.40236 12.9492 8.36017 12.8742 8.36017H8.9226L8.94369 8.25001L9.13119 7.25861C9.37729 5.96017 10.0218 5.35079 11.1421 5.35079C11.5781 5.35079 11.9742 5.39063 12.2859 5.46095L12.6163 3.89532C12.0867 3.78516 11.7913 3.75235 11.3296 3.75235C8.90854 3.75235 7.66401 4.79063 7.20697 7.2047L6.98666 8.36251H4.69916C4.6101 8.36251 4.53276 8.42579 4.51635 8.51251L4.26322 9.72658C4.24213 9.82736 4.30776 9.92814 4.40854 9.94923C4.42026 9.95158 4.43432 9.95392 4.44604 9.95392H6.65619L4.57026 20.0297C4.54916 20.1305 4.61479 20.2313 4.71557 20.2524C4.72729 20.2547 4.74135 20.2571 4.75307 20.2571H6.30463C6.39369 20.2571 6.47104 20.1938 6.48744 20.1071L8.58979 9.95626H11.7726L13.371 13.2164C13.4038 13.2844 13.3945 13.3664 13.3429 13.4227L9.1101 18.1805C9.04213 18.2578 9.04916 18.3774 9.1265 18.4453C9.16166 18.4758 9.20619 18.4922 9.25072 18.4922H10.9546C11.0109 18.4922 11.0624 18.4688 11.0976 18.4266L13.9968 14.9883C14.0624 14.9086 14.182 14.8992 14.2617 14.9649C14.2828 14.9836 14.2992 15.0047 14.3109 15.0305L15.8531 18.375C15.8835 18.4407 15.9492 18.4852 16.0242 18.4852H17.5382C17.6413 18.4852 17.7257 18.4008 17.7257 18.2977C17.7257 18.2696 17.7187 18.2414 17.707 18.2157L15.4757 13.5539C15.4429 13.486 15.4546 13.4039 15.5062 13.3477L19.7109 8.67189Z" />
</svg>
