<svg xmlns="http://www.w3.org/2000/svg" width="12" height="6" viewBox="0 0 12 6" fill="none">
    <path d="M6.00363 6C6.1994 6 6.38066 5.92332 6.51843 5.79553L11.797 1.03514C11.9275 0.920128 12 0.773163 12 0.607029C12 0.261981 11.7027 0 11.3112 0C11.1299 0 10.9486 0.0638978 10.8181 0.178914L6.00363 4.52396L1.18187 0.178914C1.05136 0.0638978 0.884592 0 0.688822 0C0.304532 0 0 0.261981 0 0.607029C0 0.773163 0.0725076 0.920128 0.203021 1.03514L5.48157 5.79553C5.63384 5.92971 5.8006 6 6.00363 6Z"
          fill="#90B3C7"/>
</svg>