<svg width="16" height="16" viewBox="0 0 16 16" fill="none" xmlns="http://www.w3.org/2000/svg">
<path d="M11.9149 5.35649C13.4173 5.35649 14.6733 4.14472 14.6733 2.67824C14.6733 1.21177 13.4173 0 11.9149 0C10.3967 0 9.1566 1.21177 9.1566 2.67824C9.1566 4.14472 10.3967 5.35649 11.9149 5.35649ZM1.70032 13.2137H9.70509C9.6415 14.2557 8.95787 14.9194 7.99603 14.9194C7.04213 14.9194 6.35056 14.2557 6.29491 13.2137H5.05485C5.11844 14.6956 6.31876 16 7.99603 16C9.68124 16 10.8816 14.6956 10.9452 13.2137H14.2997C15.0469 13.2137 15.5 12.8355 15.5 12.2798C15.5 11.508 14.6892 10.8133 14.0056 10.1264C13.4809 9.59383 13.3378 8.49783 13.2742 7.61023C13.2663 7.0931 13.2266 6.62229 13.1789 6.16691C12.8052 6.2904 12.3124 6.35986 11.9229 6.33671C11.9706 6.74578 12.0024 7.19344 12.0103 7.70285C12.0819 9.21563 12.3521 10.2036 12.9165 10.821C13.3378 11.2764 13.8068 11.7241 13.9499 11.9556V12.0482H2.04213V11.9556C2.18521 11.7241 2.66216 11.2764 3.07552 10.821C3.64785 10.2036 3.91812 9.21563 3.98967 7.70285C4.05326 4.33768 5.08665 3.25712 6.44595 2.90207C6.64468 2.85576 6.75596 2.75543 6.76391 2.56247C6.78776 1.75205 7.26471 1.18862 7.99603 1.18862C8.13911 1.18862 8.27425 1.21177 8.38553 1.25036C8.53657 0.895321 8.7353 0.563435 8.98967 0.27014C8.69555 0.138929 8.36169 0.054028 7.99603 0.054028C6.8275 0.054028 5.969 0.856729 5.70668 1.86011C3.59221 2.60106 2.7814 4.56922 2.72576 7.61023C2.66216 8.49783 2.51908 9.59383 1.99444 10.1264C1.30286 10.8133 0.5 11.508 0.5 12.2798C0.5 12.8355 0.945151 13.2137 1.70032 13.2137Z" />
</svg>
