<svg width="20" height="20" viewBox="0 0 20 20" fill="none" xmlns="http://www.w3.org/2000/svg">
    <path d="M10.0049 5.68895C11.5556 5.68895 12.8494 4.39512 12.8494 2.8445C12.8494 1.27413 11.5556 -0.00981994 10.0049 5.66012e-05C8.44444 0.00993314 7.15062 1.27413 7.15062 2.8445C7.15062 4.39512 8.44444 5.68895 10.0049 5.68895ZM17.1654 5.68895C18.7259 5.68895 20 4.39512 20 2.8445C20 1.27413 18.7259 -0.00981994 17.1654 5.66012e-05C15.6049 0.00993314 14.3309 1.27413 14.3309 2.8445C14.3309 4.39512 15.6049 5.68895 17.1654 5.68895ZM2.83457 5.67907C4.39506 5.67907 5.66914 4.39512 5.66914 2.85438C5.66914 1.29388 4.39506 5.66012e-05 2.83457 5.66012e-05C1.27407 5.66012e-05 0 1.29388 0 2.85438C0 4.39512 1.27407 5.67907 2.83457 5.67907ZM10.0049 12.3852C11.5556 12.3852 12.8494 11.0914 12.8494 9.5408C12.8494 7.9803 11.5556 6.69635 10.0049 6.70623C8.44444 6.71611 7.15062 7.9803 7.15062 9.5408C7.15062 11.0914 8.44444 12.3852 10.0049 12.3852ZM2.83457 12.3852C4.39506 12.3852 5.66914 11.0914 5.66914 9.5408C5.66914 7.9803 4.39506 6.69635 2.83457 6.70623C1.27407 6.71611 0 7.9803 0 9.5408C0 11.0914 1.27407 12.3852 2.83457 12.3852ZM17.1654 12.3852C18.7259 12.3852 20 11.0914 20 9.5408C20 7.9803 18.7259 6.69635 17.1654 6.70623C15.6049 6.71611 14.3309 7.9803 14.3309 9.5408C14.3309 11.0914 15.6049 12.3852 17.1654 12.3852ZM2.83457 19.0815C4.39506 19.0815 5.66914 17.7877 5.66914 16.2371C5.66914 14.6766 4.39506 13.4025 2.83457 13.4025C1.27407 13.4025 0 14.6766 0 16.2371C0 17.7877 1.27407 19.0815 2.83457 19.0815ZM10.0049 19.0815C11.5556 19.0815 12.8494 17.7877 12.8494 16.2371C12.8494 14.6766 11.5556 13.4025 10.0049 13.4025C8.44444 13.4025 7.15062 14.6766 7.15062 16.2371C7.15062 17.7877 8.44444 19.0815 10.0049 19.0815ZM17.1654 19.0815C18.7259 19.0815 20 17.7877 20 16.2371C20 14.6766 18.7259 13.4025 17.1654 13.4025C15.6049 13.4025 14.3309 14.6766 14.3309 16.2371C14.3309 17.7877 15.6049 19.0815 17.1654 19.0815Z" fill="#393E42"/>
</svg>
