<svg xmlns="http://www.w3.org/2000/svg" width="107" height="42" viewBox="0 0 107 42" fill="none">
    <path d="M3.36 22V15.256H9.456C10.704 15.256 11.632 15.56 12.24 16.168C12.848 16.776 13.152 17.608 13.152 18.664C13.152 19.192 13.048 19.664 12.84 20.08C12.648 20.48 12.384 20.824 12.048 21.112C11.712 21.4 11.32 21.624 10.872 21.784C10.424 21.928 9.952 22 9.456 22H3.36ZM1.728 13.864V31H3.36V23.392H9.552C10.32 23.36 10.92 23.488 11.352 23.776C11.8 24.064 12.136 24.448 12.36 24.928C12.6 25.392 12.752 25.928 12.816 26.536C12.896 27.128 12.952 27.728 12.984 28.336C13 28.512 13.016 28.72 13.032 28.96C13.048 29.2 13.064 29.448 13.08 29.704C13.112 29.944 13.152 30.184 13.2 30.424C13.264 30.648 13.344 30.84 13.44 31H15.24C15.064 30.792 14.92 30.504 14.808 30.136C14.712 29.752 14.64 29.352 14.592 28.936C14.544 28.504 14.512 28.08 14.496 27.664C14.48 27.248 14.464 26.896 14.448 26.608C14.416 26.096 14.344 25.624 14.232 25.192C14.136 24.744 13.968 24.352 13.728 24.016C13.504 23.68 13.208 23.408 12.84 23.2C12.472 22.976 12.008 22.824 11.448 22.744V22.696C12.552 22.472 13.384 21.96 13.944 21.16C14.504 20.36 14.784 19.416 14.784 18.328C14.784 17.56 14.64 16.896 14.352 16.336C14.08 15.76 13.704 15.296 13.224 14.944C12.76 14.576 12.208 14.304 11.568 14.128C10.944 13.952 10.28 13.864 9.576 13.864H1.728ZM17.7358 13.864V31H29.6878V29.608H19.3678V22.84H28.9198V21.448H19.3678V15.256H29.5678V13.864H17.7358ZM44.4904 19.048H46.1224C46.0104 18.152 45.7384 17.36 45.3064 16.672C44.8904 15.984 44.3624 15.408 43.7224 14.944C43.0984 14.464 42.3944 14.104 41.6104 13.864C40.8424 13.624 40.0504 13.504 39.2344 13.504C37.8904 13.504 36.7064 13.752 35.6824 14.248C34.6744 14.728 33.8344 15.384 33.1624 16.216C32.4904 17.032 31.9864 17.976 31.6504 19.048C31.3144 20.12 31.1464 21.248 31.1464 22.432C31.1464 23.616 31.3144 24.744 31.6504 25.816C31.9864 26.888 32.4904 27.832 33.1624 28.648C33.8344 29.464 34.6744 30.12 35.6824 30.616C36.7064 31.096 37.8904 31.336 39.2344 31.336C40.2424 31.336 41.1544 31.176 41.9704 30.856C42.8024 30.536 43.5224 30.08 44.1304 29.488C44.7384 28.896 45.2344 28.176 45.6184 27.328C46.0024 26.48 46.2504 25.528 46.3624 24.472H44.7304C44.6504 25.24 44.4664 25.96 44.1784 26.632C43.8904 27.288 43.5144 27.864 43.0504 28.36C42.5864 28.856 42.0344 29.248 41.3944 29.536C40.7544 29.824 40.0344 29.968 39.2344 29.968C38.0984 29.968 37.1224 29.752 36.3064 29.32C35.4904 28.888 34.8184 28.32 34.2904 27.616C33.7784 26.896 33.3944 26.088 33.1384 25.192C32.8984 24.28 32.7784 23.36 32.7784 22.432C32.7784 21.488 32.8984 20.568 33.1384 19.672C33.3944 18.776 33.7784 17.976 34.2904 17.272C34.8184 16.552 35.4904 15.976 36.3064 15.544C37.1224 15.112 38.0984 14.896 39.2344 14.896C39.8584 14.896 40.4504 14.992 41.0104 15.184C41.5864 15.36 42.1064 15.624 42.5704 15.976C43.0504 16.328 43.4504 16.768 43.7704 17.296C44.1064 17.808 44.3464 18.392 44.4904 19.048ZM48.8608 13.864V31H60.0928V29.608H50.4928V13.864H48.8608ZM64.1754 24.28L67.6074 15.496L70.9194 24.28H64.1754ZM66.7674 13.864L59.8794 31H61.6074L63.6714 25.672H71.4714L73.5594 31H75.3114L68.5914 13.864H66.7674ZM76.8686 13.864V31H82.7966C85.4046 30.936 87.3646 30.208 88.6766 28.816C90.0046 27.408 90.6686 25.28 90.6686 22.432C90.6686 19.584 90.0046 17.464 88.6766 16.072C87.3646 14.664 85.4046 13.928 82.7966 13.864H76.8686ZM78.5006 29.608V15.256H81.9806C83.2126 15.256 84.2686 15.392 85.1486 15.664C86.0446 15.92 86.7806 16.336 87.3566 16.912C87.9326 17.488 88.3566 18.232 88.6286 19.144C88.9006 20.056 89.0366 21.152 89.0366 22.432C89.0366 23.712 88.9006 24.808 88.6286 25.72C88.3566 26.632 87.9326 27.376 87.3566 27.952C86.7806 28.528 86.0446 28.952 85.1486 29.224C84.2686 29.48 83.2126 29.608 81.9806 29.608H78.5006ZM95.7223 24.28L99.1543 15.496L102.466 24.28H95.7223ZM98.3143 13.864L91.4263 31H93.1543L95.2183 25.672H103.018L105.106 31H106.858L100.138 13.864H98.3143Z"
          fill="#2D9CDB"/>
</svg>