<svg width="24" height="24" viewBox="0 0 24 24" fill="none" xmlns="http://www.w3.org/2000/svg">
<path d="M18.0399 20.8567C20.5081 18.9265 22.0955 15.9204 22.0955 12.5451C22.0955 6.72013 17.3886 2.00792 11.5636 2.00001C5.73066 1.9921 1 6.71485 1 12.5451C1 15.8466 2.51624 18.792 4.89212 20.7249C4.98441 20.7987 5.11889 20.7829 5.19273 20.6906L6.23168 19.359C6.30288 19.2693 6.28706 19.1401 6.20004 19.0663C5.98645 18.8922 5.78077 18.705 5.583 18.5072C4.81201 17.7389 4.19764 16.8281 3.77406 15.8255C3.33105 14.7892 3.10955 13.6843 3.10955 12.5451C3.10955 11.406 3.33105 10.3011 3.77142 9.26213C4.19597 8.25746 4.8051 7.35563 5.58036 6.58037C6.35562 5.80511 7.25745 5.19598 8.26212 4.77143C9.30371 4.33106 10.4086 4.10956 11.5477 4.10956C12.6869 4.10956 13.7918 4.33106 14.8307 4.77143C15.8354 5.19598 16.7372 5.80511 17.5125 6.58037C18.2878 7.35563 18.8969 8.25746 19.3214 9.26213C19.7618 10.3011 19.9833 11.406 19.9833 12.5451C19.9833 13.6843 19.7618 14.7892 19.3214 15.8281C18.8978 16.8308 18.2835 17.7416 17.5125 18.5099C17.2673 18.7551 17.0088 18.9845 16.7399 19.1955L15.6666 17.8216C15.6423 17.7902 15.6097 17.7663 15.5724 17.7526C15.5351 17.739 15.4947 17.7361 15.4559 17.7444C15.417 17.7526 15.3813 17.7717 15.3528 17.7994C15.3243 17.827 15.3042 17.8622 15.2948 17.9007L14.2506 22.1778C14.219 22.3097 14.3192 22.4389 14.4537 22.4389L18.8573 22.46C19.034 22.46 19.1342 22.257 19.0235 22.1198L18.0399 20.8567Z"/>
</svg>
