<svg width="240" height="79" viewBox="0 0 240 79" fill="none" xmlns="http://www.w3.org/2000/svg">
    <path d="M1.66997 5.17969L1.97857 2.3125H5.03325V3.13281H2.76763L2.61138 4.49219C2.8744 4.34115 3.17127 4.26562 3.502 4.26562C4.04367 4.26562 4.46424 4.4388 4.76372 4.78516C5.0658 5.13151 5.21685 5.59766 5.21685 6.18359C5.21685 6.76172 5.05018 7.22266 4.71685 7.56641C4.38351 7.90755 3.92648 8.07812 3.34575 8.07812C2.82492 8.07812 2.39263 7.93099 2.04888 7.63672C1.70773 7.33984 1.52284 6.94922 1.49419 6.46484H2.41216C2.44862 6.74089 2.54758 6.95312 2.70903 7.10156C2.87049 7.2474 3.08143 7.32031 3.34185 7.32031C3.63351 7.32031 3.86008 7.21615 4.02153 7.00781C4.1856 6.79948 4.26763 6.51562 4.26763 6.15625C4.26763 5.8099 4.17778 5.53646 3.9981 5.33594C3.81841 5.13281 3.57101 5.03125 3.25591 5.03125C3.08403 5.03125 2.9382 5.05469 2.81841 5.10156C2.69862 5.14583 2.56841 5.23438 2.42778 5.36719L1.66997 5.17969ZM9.66997 5.60547C9.66997 6.42318 9.51633 7.04036 9.20903 7.45703C8.90435 7.87109 8.4395 8.07812 7.8145 8.07812C7.19992 8.07812 6.73638 7.8763 6.42388 7.47266C6.11398 7.06641 5.95513 6.46615 5.94732 5.67188V4.6875C5.94732 3.86979 6.09966 3.25651 6.40435 2.84766C6.71164 2.4388 7.17909 2.23438 7.80669 2.23438C8.42909 2.23438 8.89263 2.43359 9.19732 2.83203C9.50461 3.23047 9.66216 3.82682 9.66997 4.62109V5.60547ZM8.72075 4.54297C8.72075 4.00911 8.64784 3.61849 8.502 3.37109C8.35617 3.12109 8.1244 2.99609 7.80669 2.99609C7.49679 2.99609 7.26893 3.11458 7.1231 3.35156C6.97726 3.58594 6.90044 3.95312 6.89263 4.45312V5.74219C6.89263 6.27344 6.96685 6.66927 7.11528 6.92969C7.26372 7.1901 7.49679 7.32031 7.8145 7.32031C8.11919 7.32031 8.34445 7.20052 8.49028 6.96094C8.63612 6.71875 8.71294 6.34115 8.72075 5.82812V4.54297Z" fill="#CCCCCC"/>
    <path d="M5.24028 33H1.41607V32.3477L3.3106 30.2812C3.58403 29.9766 3.77804 29.7227 3.89263 29.5195C4.00982 29.3138 4.06841 29.1081 4.06841 28.9023C4.06841 28.6315 3.99159 28.4128 3.83794 28.2461C3.6869 28.0794 3.48247 27.9961 3.22466 27.9961C2.91737 27.9961 2.67909 28.0898 2.50982 28.2773C2.34054 28.4648 2.25591 28.7214 2.25591 29.0469H1.30669C1.30669 28.7005 1.38482 28.3893 1.54107 28.1133C1.69992 27.8346 1.92518 27.6185 2.21685 27.4648C2.51112 27.3112 2.84966 27.2344 3.23247 27.2344C3.78455 27.2344 4.21945 27.3737 4.53716 27.6523C4.85747 27.9284 5.01763 28.3112 5.01763 28.8008C5.01763 29.0846 4.9369 29.3828 4.77544 29.6953C4.61659 30.0052 4.35487 30.3581 3.99028 30.7539L2.59966 32.2422H5.24028V33ZM6.21685 30.1797L6.52544 27.3125H9.58013V28.1328H7.3145L7.15825 29.4922C7.42127 29.3411 7.71815 29.2656 8.04888 29.2656C8.59054 29.2656 9.01112 29.4388 9.3106 29.7852C9.61268 30.1315 9.76372 30.5977 9.76372 31.1836C9.76372 31.7617 9.59705 32.2227 9.26372 32.5664C8.93039 32.9076 8.47336 33.0781 7.89263 33.0781C7.37179 33.0781 6.9395 32.931 6.59575 32.6367C6.25461 32.3398 6.06971 31.9492 6.04107 31.4648H6.95903C6.99549 31.7409 7.09445 31.9531 7.25591 32.1016C7.41737 32.2474 7.6283 32.3203 7.88872 32.3203C8.18039 32.3203 8.40695 32.2161 8.56841 32.0078C8.73247 31.7995 8.8145 31.5156 8.8145 31.1562C8.8145 30.8099 8.72466 30.5365 8.54497 30.3359C8.36528 30.1328 8.11789 30.0312 7.80278 30.0312C7.63091 30.0312 7.48508 30.0547 7.36528 30.1016C7.24549 30.1458 7.11528 30.2344 6.97466 30.3672L6.21685 30.1797Z" fill="#CCCCCC"/>
    <path d="M9.66995 55.6055C9.66995 56.4232 9.5163 57.0404 9.20901 57.457C8.90432 57.8711 8.43948 58.0781 7.81448 58.0781C7.19989 58.0781 6.73635 57.8763 6.42385 57.4727C6.11396 57.0664 5.9551 56.4661 5.94729 55.6719V54.6875C5.94729 53.8698 6.09963 53.2565 6.40432 52.8477C6.71161 52.4388 7.17906 52.2344 7.80667 52.2344C8.42906 52.2344 8.8926 52.4336 9.19729 52.832C9.50458 53.2305 9.66213 53.8268 9.66995 54.6211V55.6055ZM8.72073 54.543C8.72073 54.0091 8.64781 53.6185 8.50198 53.3711C8.35614 53.1211 8.12437 52.9961 7.80667 52.9961C7.49677 52.9961 7.26891 53.1146 7.12307 53.3516C6.97724 53.5859 6.90042 53.9531 6.8926 54.4531V55.7422C6.8926 56.2734 6.96682 56.6693 7.11526 56.9297C7.2637 57.1901 7.49677 57.3203 7.81448 57.3203C8.11917 57.3203 8.34443 57.2005 8.49026 56.9609C8.63609 56.7188 8.71292 56.3411 8.72073 55.8281V54.543Z" fill="#CCCCCC"/>
    <path d="M50.114 77H46.2898V76.3477L48.1843 74.2812C48.4578 73.9766 48.6518 73.7227 48.7664 73.5195C48.8835 73.3138 48.9421 73.1081 48.9421 72.9023C48.9421 72.6315 48.8653 72.4128 48.7117 72.2461C48.5606 72.0794 48.3562 71.9961 48.0984 71.9961C47.7911 71.9961 47.5528 72.0898 47.3835 72.2773C47.2143 72.4648 47.1296 72.7214 47.1296 73.0469H46.1804C46.1804 72.7005 46.2585 72.3893 46.4148 72.1133C46.5736 71.8346 46.7989 71.6185 47.0906 71.4648C47.3848 71.3112 47.7234 71.2344 48.1062 71.2344C48.6583 71.2344 49.0932 71.3737 49.4109 71.6523C49.7312 71.9284 49.8914 72.3112 49.8914 72.8008C49.8914 73.0846 49.8106 73.3828 49.6492 73.6953C49.4903 74.0052 49.2286 74.3581 48.864 74.7539L47.4734 76.2422H50.114V77ZM54.5437 74.6055C54.5437 75.4232 54.3901 76.0404 54.0828 76.457C53.7781 76.8711 53.3132 77.0781 52.6882 77.0781C52.0736 77.0781 51.6101 76.8763 51.2976 76.4727C50.9877 76.0664 50.8289 75.4661 50.821 74.6719V73.6875C50.821 72.8698 50.9734 72.2565 51.2781 71.8477C51.5854 71.4388 52.0528 71.2344 52.6804 71.2344C53.3028 71.2344 53.7664 71.4336 54.071 71.832C54.3783 72.2305 54.5359 72.8268 54.5437 73.6211V74.6055ZM53.5945 73.543C53.5945 73.0091 53.5216 72.6185 53.3757 72.3711C53.2299 72.1211 52.9981 71.9961 52.6804 71.9961C52.3705 71.9961 52.1427 72.1146 51.9968 72.3516C51.851 72.5859 51.7742 72.9531 51.7664 73.4531V74.7422C51.7664 75.2734 51.8406 75.6693 51.989 75.9297C52.1374 76.1901 52.3705 76.3203 52.6882 76.3203C52.9929 76.3203 53.2182 76.2005 53.364 75.9609C53.5098 75.7188 53.5867 75.3411 53.5945 74.8281V73.543ZM59.0906 74.6055C59.0906 75.4232 58.9369 76.0404 58.6296 76.457C58.3249 76.8711 57.8601 77.0781 57.2351 77.0781C56.6205 77.0781 56.157 76.8763 55.8445 76.4727C55.5346 76.0664 55.3757 75.4661 55.3679 74.6719V73.6875C55.3679 72.8698 55.5203 72.2565 55.8249 71.8477C56.1322 71.4388 56.5997 71.2344 57.2273 71.2344C57.8497 71.2344 58.3132 71.4336 58.6179 71.832C58.9252 72.2305 59.0828 72.8268 59.0906 73.6211V74.6055ZM58.1414 73.543C58.1414 73.0091 58.0684 72.6185 57.9226 72.3711C57.7768 72.1211 57.545 71.9961 57.2273 71.9961C56.9174 71.9961 56.6895 72.1146 56.5437 72.3516C56.3979 72.5859 56.321 72.9531 56.3132 73.4531V74.7422C56.3132 75.2734 56.3874 75.6693 56.5359 75.9297C56.6843 76.1901 56.9174 76.3203 57.2351 76.3203C57.5398 76.3203 57.7651 76.2005 57.9109 75.9609C58.0567 75.7188 58.1335 75.3411 58.1414 74.8281V73.543ZM63.6374 74.6055C63.6374 75.4232 63.4838 76.0404 63.1765 76.457C62.8718 76.8711 62.407 77.0781 61.782 77.0781C61.1674 77.0781 60.7039 76.8763 60.3914 76.4727C60.0815 76.0664 59.9226 75.4661 59.9148 74.6719V73.6875C59.9148 72.8698 60.0671 72.2565 60.3718 71.8477C60.6791 71.4388 61.1466 71.2344 61.7742 71.2344C62.3966 71.2344 62.8601 71.4336 63.1648 71.832C63.4721 72.2305 63.6296 72.8268 63.6374 73.6211V74.6055ZM62.6882 73.543C62.6882 73.0091 62.6153 72.6185 62.4695 72.3711C62.3236 72.1211 62.0919 71.9961 61.7742 71.9961C61.4643 71.9961 61.2364 72.1146 61.0906 72.3516C60.9447 72.5859 60.8679 72.9531 60.8601 73.4531V74.7422C60.8601 75.2734 60.9343 75.6693 61.0828 75.9297C61.2312 76.1901 61.4643 76.3203 61.782 76.3203C62.0867 76.3203 62.3119 76.2005 62.4578 75.9609C62.6036 75.7188 62.6804 75.3411 62.6882 74.8281V73.543Z" fill="#CCCCCC"/>
    <path d="M107.593 77H103.769V76.3477L105.663 74.2812C105.937 73.9766 106.131 73.7227 106.245 73.5195C106.363 73.3138 106.421 73.1081 106.421 72.9023C106.421 72.6315 106.344 72.4128 106.191 72.2461C106.04 72.0794 105.835 71.9961 105.577 71.9961C105.27 71.9961 105.032 72.0898 104.863 72.2773C104.693 72.4648 104.609 72.7214 104.609 73.0469H103.659C103.659 72.7005 103.738 72.3893 103.894 72.1133C104.053 71.8346 104.278 71.6185 104.57 71.4648C104.864 71.3112 105.202 71.2344 105.585 71.2344C106.137 71.2344 106.572 71.3737 106.89 71.6523C107.21 71.9284 107.37 72.3112 107.37 72.8008C107.37 73.0846 107.29 73.3828 107.128 73.6953C106.969 74.0052 106.708 74.3581 106.343 74.7539L104.952 76.2422H107.593V77ZM112.023 74.6055C112.023 75.4232 111.869 76.0404 111.562 76.457C111.257 76.8711 110.792 77.0781 110.167 77.0781C109.553 77.0781 109.089 76.8763 108.777 76.4727C108.467 76.0664 108.308 75.4661 108.3 74.6719V73.6875C108.3 72.8698 108.452 72.2565 108.757 71.8477C109.064 71.4388 109.532 71.2344 110.159 71.2344C110.782 71.2344 111.245 71.4336 111.55 71.832C111.857 72.2305 112.015 72.8268 112.023 73.6211V74.6055ZM111.073 73.543C111.073 73.0091 111.001 72.6185 110.855 72.3711C110.709 72.1211 110.477 71.9961 110.159 71.9961C109.85 71.9961 109.622 72.1146 109.476 72.3516C109.33 72.5859 109.253 72.9531 109.245 73.4531V74.7422C109.245 75.2734 109.32 75.6693 109.468 75.9297C109.616 76.1901 109.85 76.3203 110.167 76.3203C110.472 76.3203 110.697 76.2005 110.843 75.9609C110.989 75.7188 111.066 75.3411 111.073 74.8281V73.543ZM116.57 74.6055C116.57 75.4232 116.416 76.0404 116.109 76.457C115.804 76.8711 115.339 77.0781 114.714 77.0781C114.1 77.0781 113.636 76.8763 113.323 76.4727C113.014 76.0664 112.855 75.4661 112.847 74.6719V73.6875C112.847 72.8698 112.999 72.2565 113.304 71.8477C113.611 71.4388 114.079 71.2344 114.706 71.2344C115.329 71.2344 115.792 71.4336 116.097 71.832C116.404 72.2305 116.562 72.8268 116.57 73.6211V74.6055ZM115.62 73.543C115.62 73.0091 115.547 72.6185 115.402 72.3711C115.256 72.1211 115.024 71.9961 114.706 71.9961C114.396 71.9961 114.169 72.1146 114.023 72.3516C113.877 72.5859 113.8 72.9531 113.792 73.4531V74.7422C113.792 75.2734 113.866 75.6693 114.015 75.9297C114.163 76.1901 114.396 76.3203 114.714 76.3203C115.019 76.3203 115.244 76.2005 115.39 75.9609C115.536 75.7188 115.613 75.3411 115.62 74.8281V73.543ZM117.663 74.1797L117.972 71.3125H121.027V72.1328H118.761L118.605 73.4922C118.868 73.3411 119.165 73.2656 119.495 73.2656C120.037 73.2656 120.458 73.4388 120.757 73.7852C121.059 74.1315 121.21 74.5977 121.21 75.1836C121.21 75.7617 121.044 76.2227 120.71 76.5664C120.377 76.9076 119.92 77.0781 119.339 77.0781C118.818 77.0781 118.386 76.931 118.042 76.6367C117.701 76.3398 117.516 75.9492 117.488 75.4648H118.406C118.442 75.7409 118.541 75.9531 118.702 76.1016C118.864 76.2474 119.075 76.3203 119.335 76.3203C119.627 76.3203 119.853 76.2161 120.015 76.0078C120.179 75.7995 120.261 75.5156 120.261 75.1562C120.261 74.8099 120.171 74.5365 119.991 74.3359C119.812 74.1328 119.564 74.0312 119.249 74.0312C119.077 74.0312 118.932 74.0547 118.812 74.1016C118.692 74.1458 118.562 74.2344 118.421 74.3672L117.663 74.1797Z" fill="#CCCCCC"/>
    <path d="M165.072 77H161.248V76.3477L163.142 74.2812C163.416 73.9766 163.61 73.7227 163.724 73.5195C163.842 73.3138 163.9 73.1081 163.9 72.9023C163.9 72.6315 163.823 72.4128 163.67 72.2461C163.519 72.0794 163.314 71.9961 163.056 71.9961C162.749 71.9961 162.511 72.0898 162.342 72.2773C162.172 72.4648 162.088 72.7214 162.088 73.0469H161.138C161.138 72.7005 161.217 72.3893 161.373 72.1133C161.532 71.8346 161.757 71.6185 162.049 71.4648C162.343 71.3112 162.681 71.2344 163.064 71.2344C163.616 71.2344 164.051 71.3737 164.369 71.6523C164.689 71.9284 164.849 72.3112 164.849 72.8008C164.849 73.0846 164.769 73.3828 164.607 73.6953C164.448 74.0052 164.187 74.3581 163.822 74.7539L162.431 76.2422H165.072V77ZM169.502 74.6055C169.502 75.4232 169.348 76.0404 169.041 76.457C168.736 76.8711 168.271 77.0781 167.646 77.0781C167.032 77.0781 166.568 76.8763 166.256 76.4727C165.946 76.0664 165.787 75.4661 165.779 74.6719V73.6875C165.779 72.8698 165.931 72.2565 166.236 71.8477C166.543 71.4388 167.011 71.2344 167.638 71.2344C168.261 71.2344 168.724 71.4336 169.029 71.832C169.336 72.2305 169.494 72.8268 169.502 73.6211V74.6055ZM168.552 73.543C168.552 73.0091 168.48 72.6185 168.334 72.3711C168.188 72.1211 167.956 71.9961 167.638 71.9961C167.329 71.9961 167.101 72.1146 166.955 72.3516C166.809 72.5859 166.732 72.9531 166.724 73.4531V74.7422C166.724 75.2734 166.799 75.6693 166.947 75.9297C167.095 76.1901 167.329 76.3203 167.646 76.3203C167.951 76.3203 168.176 76.2005 168.322 75.9609C168.468 75.7188 168.545 75.3411 168.552 74.8281V73.543ZM172.912 77H171.967V72.4336L170.572 72.9102V72.1094L172.791 71.293H172.912V77ZM178.595 74.6055C178.595 75.4232 178.442 76.0404 178.135 76.457C177.83 76.8711 177.365 77.0781 176.74 77.0781C176.125 77.0781 175.662 76.8763 175.349 76.4727C175.039 76.0664 174.881 75.4661 174.873 74.6719V73.6875C174.873 72.8698 175.025 72.2565 175.33 71.8477C175.637 71.4388 176.105 71.2344 176.732 71.2344C177.355 71.2344 177.818 71.4336 178.123 71.832C178.43 72.2305 178.588 72.8268 178.595 73.6211V74.6055ZM177.646 73.543C177.646 73.0091 177.573 72.6185 177.427 72.3711C177.282 72.1211 177.05 71.9961 176.732 71.9961C176.422 71.9961 176.194 72.1146 176.049 72.3516C175.903 72.5859 175.826 72.9531 175.818 73.4531V74.7422C175.818 75.2734 175.892 75.6693 176.041 75.9297C176.189 76.1901 176.422 76.3203 176.74 76.3203C177.045 76.3203 177.27 76.2005 177.416 75.9609C177.562 75.7188 177.638 75.3411 177.646 74.8281V73.543Z" fill="#CCCCCC"/>
    <path d="M222.551 77H218.727V76.3477L220.621 74.2812C220.895 73.9766 221.089 73.7227 221.203 73.5195C221.321 73.3138 221.379 73.1081 221.379 72.9023C221.379 72.6315 221.302 72.4128 221.149 72.2461C220.998 72.0794 220.793 71.9961 220.535 71.9961C220.228 71.9961 219.99 72.0898 219.821 72.2773C219.651 72.4648 219.567 72.7214 219.567 73.0469H218.617C218.617 72.7005 218.696 72.3893 218.852 72.1133C219.011 71.8346 219.236 71.6185 219.528 71.4648C219.822 71.3112 220.16 71.2344 220.543 71.2344C221.095 71.2344 221.53 71.3737 221.848 71.6523C222.168 71.9284 222.328 72.3112 222.328 72.8008C222.328 73.0846 222.248 73.3828 222.086 73.6953C221.927 74.0052 221.666 74.3581 221.301 74.7539L219.91 76.2422H222.551V77ZM226.981 74.6055C226.981 75.4232 226.827 76.0404 226.52 76.457C226.215 76.8711 225.75 77.0781 225.125 77.0781C224.511 77.0781 224.047 76.8763 223.735 76.4727C223.425 76.0664 223.266 75.4661 223.258 74.6719V73.6875C223.258 72.8698 223.41 72.2565 223.715 71.8477C224.022 71.4388 224.49 71.2344 225.117 71.2344C225.74 71.2344 226.203 71.4336 226.508 71.832C226.815 72.2305 226.973 72.8268 226.981 73.6211V74.6055ZM226.031 73.543C226.031 73.0091 225.959 72.6185 225.813 72.3711C225.667 72.1211 225.435 71.9961 225.117 71.9961C224.808 71.9961 224.58 72.1146 224.434 72.3516C224.288 72.5859 224.211 72.9531 224.203 73.4531V74.7422C224.203 75.2734 224.278 75.6693 224.426 75.9297C224.574 76.1901 224.808 76.3203 225.125 76.3203C225.43 76.3203 225.655 76.2005 225.801 75.9609C225.947 75.7188 226.024 75.3411 226.031 74.8281V73.543ZM231.645 77H227.821V76.3477L229.715 74.2812C229.989 73.9766 230.183 73.7227 230.297 73.5195C230.414 73.3138 230.473 73.1081 230.473 72.9023C230.473 72.6315 230.396 72.4128 230.242 72.2461C230.091 72.0794 229.887 71.9961 229.629 71.9961C229.322 71.9961 229.084 72.0898 228.914 72.2773C228.745 72.4648 228.66 72.7214 228.66 73.0469H227.711C227.711 72.7005 227.789 72.3893 227.946 72.1133C228.104 71.8346 228.33 71.6185 228.621 71.4648C228.916 71.3112 229.254 71.2344 229.637 71.2344C230.189 71.2344 230.624 71.3737 230.942 71.6523C231.262 71.9284 231.422 72.3112 231.422 72.8008C231.422 73.0846 231.341 73.3828 231.18 73.6953C231.021 74.0052 230.759 74.3581 230.395 74.7539L229.004 76.2422H231.645V77ZM236.074 74.6055C236.074 75.4232 235.921 76.0404 235.614 76.457C235.309 76.8711 234.844 77.0781 234.219 77.0781C233.604 77.0781 233.141 76.8763 232.828 76.4727C232.518 76.0664 232.36 75.4661 232.352 74.6719V73.6875C232.352 72.8698 232.504 72.2565 232.809 71.8477C233.116 71.4388 233.584 71.2344 234.211 71.2344C234.834 71.2344 235.297 71.4336 235.602 71.832C235.909 72.2305 236.067 72.8268 236.074 73.6211V74.6055ZM235.125 73.543C235.125 73.0091 235.052 72.6185 234.906 72.3711C234.761 72.1211 234.529 71.9961 234.211 71.9961C233.901 71.9961 233.673 72.1146 233.528 72.3516C233.382 72.5859 233.305 72.9531 233.297 73.4531V74.7422C233.297 75.2734 233.371 75.6693 233.52 75.9297C233.668 76.1901 233.901 76.3203 234.219 76.3203C234.524 76.3203 234.749 76.2005 234.895 75.9609C235.041 75.7188 235.117 75.3411 235.125 74.8281V73.543Z" fill="#CCCCCC"/>
    <line x1="15.626" y1="2" x2="15.626" y2="62" stroke="#999999"/>
    <line x1="15.126" y1="61.5" x2="240" y2="61.5" stroke="#999999"/>
    <path d="M16.1343 61C21.1707 57.199 27.6683 54.5627 33.9482 52.2036C37.1591 50.9975 40.3631 49.8613 43.9784 50.1363C47.8249 50.4289 50.2122 52.7505 53.7212 53.7035C62.5779 56.1088 67.3039 51.5194 71.718 46.2448C72.9931 44.7211 74.6896 42.3177 76.942 41.5831C80.5926 40.3926 83.6318 42.2036 86.6065 43.8329C89.6011 45.4732 93.0061 46.4701 96.6105 46.9542C99.2956 47.3148 103.467 48.1674 106.092 47.1771C110.421 45.5444 113.856 42.8412 118.891 42.4749C123.654 42.1284 127.622 44.2373 131.246 46.3461C132.938 47.3309 135.451 48.5554 137.645 48.5554C139.574 48.5554 140.867 47.222 142.608 46.7718C144.666 46.2395 146.893 46.3403 148.981 46.6907C149.717 46.8141 150.99 46.9932 151.28 46.2853C151.763 45.1066 151.522 43.6876 151.567 42.4749C151.679 39.4936 152.071 36.3724 153.422 33.5569C155.643 28.9294 162.552 26.3679 167.501 23.808C172.286 21.3324 177.186 18.322 182.598 16.7344C188.351 15.0467 190.818 16.292 193.856 20.2205C199.057 26.947 200.811 35.0172 207.046 41.2791C207.415 41.6488 209.821 44.2381 210.782 43.3059C211.245 42.8565 212.23 43.1884 212.662 43.4883C214.94 45.0699 216.62 47.3161 219.01 48.758C221.698 50.3805 226.994 47.7881 230.032 49.1634C231.736 49.9345 232.429 51.4274 233.82 52.4468C234.468 52.9219 238.091 53.3386 238.991 53.3386" stroke="white" stroke-linecap="round" stroke-linejoin="round"/>
    <rect x="84.1973" y="6.5" width="142.193" height="46" rx="4.5" stroke="#2D9CDB"/>
    <ellipse cx="84.2018" cy="28.5" rx="3.52941" ry="3.5" fill="#2D9CDB"/>
    <ellipse cx="226.386" cy="28.5" rx="3.52941" ry="3.5" fill="#2D9CDB"/>
</svg>
