<svg width="32" height="32" viewBox="0 0 32 32" fill="none" xmlns="http://www.w3.org/2000/svg">
<path fill-rule="evenodd" clip-rule="evenodd" d="M24.2445 21.8545C28.3822 16.5405 28.0084 8.85243 23.1233 3.96734C17.8336 -1.32245 9.25712 -1.32245 3.96734 3.96734C-1.32245 9.25712 -1.32245 17.8336 3.96734 23.1233C8.85243 28.0084 16.5405 28.3822 21.8545 24.2445C21.8774 24.2704 21.9013 24.2958 21.9261 24.3206L29.1096 31.5041C29.7708 32.1653 30.8429 32.1653 31.5041 31.5041C32.1653 30.8429 32.1653 29.7708 31.5041 29.1096L24.3206 21.9261C24.2958 21.9013 24.2704 21.8774 24.2445 21.8545ZM20.7288 6.36184C24.6962 10.3292 24.6962 16.7615 20.7288 20.7288C16.7615 24.6962 10.3292 24.6962 6.36184 20.7288C2.3945 16.7615 2.3945 10.3292 6.36184 6.36184C10.3292 2.3945 16.7615 2.3945 20.7288 6.36184Z" />
</svg>
