<svg width="21" height="20" viewBox="0 0 21 20" fill="none" xmlns="http://www.w3.org/2000/svg">
<path d="M18.4961 12.2207L17.2168 11.1269C17.2773 10.7558 17.3086 10.3769 17.3086 9.99803C17.3086 9.61913 17.2773 9.24022 17.2168 8.86913L18.4961 7.77538C18.5926 7.69278 18.6616 7.58276 18.6941 7.45995C18.7265 7.33714 18.7208 7.20737 18.6777 7.08788L18.6602 7.0371C18.308 6.05278 17.7806 5.1403 17.1035 4.34375L17.0684 4.30273C16.9862 4.20615 16.8768 4.13673 16.7544 4.1036C16.632 4.07048 16.5024 4.07522 16.3828 4.11718L14.7949 4.68164C14.209 4.20117 13.5547 3.82226 12.8477 3.55664L12.541 1.89648C12.5179 1.77157 12.4573 1.65664 12.3673 1.56699C12.2773 1.47733 12.1621 1.41718 12.0371 1.39453L11.9844 1.38477C10.9668 1.20117 9.89649 1.20117 8.87891 1.38477L8.82618 1.39453C8.70117 1.41718 8.58601 1.47733 8.49601 1.56699C8.406 1.65664 8.3454 1.77157 8.32227 1.89648L8.01368 3.56445C7.31229 3.83013 6.65912 4.20883 6.08008 4.68554L4.48047 4.11718C4.36087 4.07488 4.23124 4.06998 4.10878 4.10312C3.98633 4.13626 3.87686 4.20588 3.79493 4.30273L3.75977 4.34375C3.08349 5.14086 2.55621 6.05319 2.20313 7.0371L2.18555 7.08788C2.09766 7.33202 2.16993 7.60546 2.36719 7.77538L3.66211 8.88085C3.60157 9.24804 3.57227 9.62303 3.57227 9.99608C3.57227 10.3711 3.60157 10.7461 3.66211 11.1113L2.36719 12.2168C2.2707 12.2994 2.20164 12.4094 2.16919 12.5322C2.13675 12.655 2.14245 12.7848 2.18555 12.9043L2.20313 12.9551C2.55664 13.9394 3.08008 14.8476 3.75977 15.6484L3.79493 15.6894C3.87706 15.786 3.98653 15.8554 4.10891 15.8886C4.23129 15.9217 4.36084 15.9169 4.48047 15.875L6.08008 15.3066C6.66211 15.7851 7.3125 16.164 8.01368 16.4277L8.32227 18.0957C8.3454 18.2206 8.406 18.3355 8.49601 18.4252C8.58601 18.5148 8.70117 18.575 8.82618 18.5976L8.87891 18.6074C9.90584 18.792 10.9574 18.792 11.9844 18.6074L12.0371 18.5976C12.1621 18.575 12.2773 18.5148 12.3673 18.4252C12.4573 18.3355 12.5179 18.2206 12.541 18.0957L12.8477 16.4355C13.5544 16.1706 14.2124 15.7905 14.7949 15.3105L16.3828 15.875C16.5024 15.9173 16.6321 15.9222 16.7545 15.889C16.877 15.8559 16.9864 15.7863 17.0684 15.6894L17.1035 15.6484C17.7832 14.8457 18.3066 13.9394 18.6602 12.9551L18.6777 12.9043C18.7656 12.664 18.6934 12.3906 18.4961 12.2207ZM15.8301 9.0996C15.8789 9.39452 15.9043 9.69725 15.9043 9.99999C15.9043 10.3027 15.8789 10.6055 15.8301 10.9004L15.7012 11.6836L17.1602 12.9316C16.939 13.4412 16.6598 13.9235 16.3281 14.3691L14.5156 13.7265L13.9023 14.2305C13.4355 14.6133 12.916 14.914 12.3535 15.125L11.6094 15.4043L11.2598 17.2988C10.7081 17.3613 10.1512 17.3613 9.59961 17.2988L9.25 15.4004L8.51172 15.1172C7.95508 14.9062 7.4375 14.6054 6.97461 14.2246L6.36133 13.7187L4.53711 14.3672C4.20508 13.9199 3.92774 13.4375 3.70508 12.9297L5.17969 11.6699L5.05274 10.8887C5.00586 10.5976 4.98047 10.2969 4.98047 9.99999C4.98047 9.70116 5.00391 9.40233 5.05274 9.11132L5.17969 8.33007L3.70508 7.0703C3.92579 6.56054 4.20508 6.08007 4.53711 5.63281L6.36133 6.28124L6.97461 5.77538C7.4375 5.39453 7.95508 5.09374 8.51172 4.88281L9.25196 4.60351L9.60157 2.70508C10.1504 2.64258 10.7109 2.64258 11.2617 2.70508L11.6113 4.5996L12.3555 4.8789C12.916 5.08984 13.4375 5.39062 13.9043 5.77343L14.5176 6.27734L16.3301 5.63476C16.6621 6.08202 16.9395 6.56445 17.1621 7.07226L15.7031 8.3203L15.8301 9.0996ZM10.4336 6.36718C8.53516 6.36718 6.9961 7.90624 6.9961 9.80468C6.9961 11.7031 8.53516 13.2422 10.4336 13.2422C12.332 13.2422 13.8711 11.7031 13.8711 9.80468C13.8711 7.90624 12.332 6.36718 10.4336 6.36718ZM11.9805 11.3515C11.7776 11.555 11.5365 11.7164 11.271 11.8263C11.0055 11.9363 10.7209 11.9926 10.4336 11.9922C9.84961 11.9922 9.30078 11.7637 8.88672 11.3515C8.68325 11.1487 8.5219 10.9075 8.41196 10.6421C8.30202 10.3766 8.24565 10.092 8.2461 9.80468C8.2461 9.22069 8.47461 8.67186 8.88672 8.2578C9.30078 7.84374 9.84961 7.61718 10.4336 7.61718C11.0176 7.61718 11.5664 7.84374 11.9805 8.2578C12.1839 8.46069 12.3453 8.7018 12.4552 8.96728C12.5652 9.23275 12.6215 9.51734 12.6211 9.80468C12.6211 10.3887 12.3926 10.9375 11.9805 11.3515Z" />
</svg>
