<svg width="16" height="14" viewBox="0 0 16 14" fill="none" xmlns="http://www.w3.org/2000/svg">
    <path d="M6 7.00423C6 7.23263 6.08946 7.44411 6.23855 7.60483L11.7923 13.7631C11.9265 13.9154 12.098 14 12.2918 14C12.6944 14 13 13.6532 13 13.1964C13 12.9849 12.9255 12.7734 12.7913 12.6211L7.72204 7.00423L12.7913 1.37885C12.9255 1.22659 13 1.03202 13 0.803625C13 0.355287 12.6944 2.67203e-08 12.2918 6.19129e-08C12.098 7.88574e-08 11.9265 0.084592 11.7923 0.236858L6.23855 6.39517C6.082 6.57281 6 6.76737 6 7.00423Z"/>
    <path d="M0.749999 7.00423C0.749999 7.23263 0.839457 7.44411 0.988552 7.60484L6.54233 13.7631C6.67652 13.9154 6.84798 14 7.0418 14C7.44436 14 7.75 13.6532 7.75 13.1964C7.75 12.9849 7.67545 12.7734 7.54127 12.6211L2.47204 7.00423L7.54127 1.37885C7.67545 1.22659 7.75 1.03202 7.75 0.803626C7.75 0.355287 7.44435 4.8569e-07 7.0418 5.20882e-07C6.84797 5.37827e-07 6.67652 0.0845924 6.54233 0.236859L0.988551 6.39517C0.832002 6.57281 0.749999 6.76737 0.749999 7.00423Z"/>
</svg>
