<svg width="17" height="13" viewBox="0 0 17 13" fill="none" xmlns="http://www.w3.org/2000/svg">
    <path d="M2.25328 12.7H14.2493C15.5913 12.7 16.2692 12.0153 16.2692 10.7007V2.30618C16.2692 0.984704 15.5913 0.299999 14.2493 0.299999H2.25328C0.918103 0.299999 0.233398 0.977857 0.233398 2.30618V10.7007C0.233398 12.0221 0.918103 12.7 2.25328 12.7ZM2.26697 11.851C1.5001 11.851 1.08243 11.447 1.08243 10.6527V2.34727C1.08243 1.55986 1.5001 1.14903 2.26697 1.14903H5.3276V11.851H2.26697ZM14.2356 1.14903C14.9888 1.14903 15.4201 1.55986 15.4201 2.34727V10.6527C15.4201 11.447 14.9888 11.851 14.2356 11.851H6.15609V1.14903H14.2356ZM4.01297 3.70298C4.19099 3.70298 4.33478 3.55235 4.33478 3.38802C4.33478 3.21684 4.19099 3.07305 4.01297 3.07305H2.39706C2.22589 3.07305 2.0821 3.21684 2.0821 3.38802C2.0821 3.55235 2.22589 3.70298 2.39706 3.70298H4.01297ZM4.01297 5.5106C4.19099 5.5106 4.33478 5.36681 4.33478 5.19564C4.33478 5.03131 4.19099 4.88752 4.01297 4.88752H2.39706C2.22589 4.88752 2.0821 5.03131 2.0821 5.19564C2.0821 5.36681 2.22589 5.5106 2.39706 5.5106H4.01297ZM4.01297 7.31822C4.19099 7.31822 4.33478 7.17443 4.33478 7.0101C4.33478 6.83893 4.19099 6.69514 4.01297 6.69514H2.39706C2.22589 6.69514 2.0821 6.83893 2.0821 7.0101C2.0821 7.17443 2.22589 7.31822 2.39706 7.31822H4.01297Z"/>
</svg>
