<svg width="16" height="16" viewBox="0 0 16 16" fill="none" xmlns="http://www.w3.org/2000/svg">
<path d="M7.11376 15.3846C7.11376 15.7245 7.38927 16 7.72914 16C8.06901 16 8.34453 15.7245 8.34453 15.3846V2.12581L9.73078 3.51206C9.9711 3.75239 10.3607 3.75239 10.6011 3.51206C10.8414 3.27174 10.8414 2.8821 10.6011 2.64178L8.25522 0.295938C8.14725 0.118501 7.95203 0 7.72914 0C7.55305 0 7.39423 0.0739606 7.28206 0.192512C7.27774 0.196594 7.27346 0.200751 7.26923 0.204982L4.83243 2.64178C4.59211 2.8821 4.59211 3.27174 4.83243 3.51207C5.07276 3.75239 5.4624 3.75239 5.70272 3.51207L7.11376 2.10103L7.11376 15.3846Z" fill="#536D85"/>
<path d="M3.66755 0.615385C3.66755 0.275518 3.39203 2.39283e-07 3.05216 2.68996e-07C2.71229 2.98708e-07 2.43678 0.275518 2.43678 0.615385L2.43678 13.8742L1.05053 12.4879C0.810205 12.2476 0.420565 12.2476 0.180242 12.4879C-0.0600807 12.7283 -0.0600806 13.1179 0.180242 13.3582L2.52608 15.7041C2.63406 15.8815 2.82927 16 3.05216 16C3.22826 16 3.38707 15.926 3.49924 15.8075C3.50356 15.8034 3.50784 15.7992 3.51207 15.795L5.94887 13.3582C6.18919 13.1179 6.18919 12.7283 5.94887 12.4879C5.70855 12.2476 5.31891 12.2476 5.07859 12.4879L3.66755 13.899L3.66755 0.615385Z" fill="#536D85"/>
<path d="M12.972 0.615385C12.972 0.275518 12.6965 2.39283e-07 12.3566 2.68996e-07C12.0167 2.98708e-07 11.7412 0.275518 11.7412 0.615385L11.7412 13.8742L10.355 12.4879C10.1147 12.2476 9.72501 12.2476 9.48469 12.4879C9.24437 12.7283 9.24437 13.1179 9.48469 13.3582L11.8305 15.7041C11.9385 15.8815 12.1337 16 12.3566 16C12.5327 16 12.6915 15.926 12.8037 15.8075C12.808 15.8034 12.8123 15.7992 12.8165 15.795L15.2533 13.3582C15.4936 13.1179 15.4936 12.7283 15.2533 12.4879C15.013 12.2476 14.6234 12.2476 14.383 12.4879L12.972 13.899L12.972 0.615385Z" fill="#536D85"/>
</svg>
