<svg width="20" height="20" viewBox="0 0 20 20" fill="none" xmlns="http://www.w3.org/2000/svg">
<path d="M9.11376 17.3846C9.11376 17.7245 9.38927 18 9.72914 18C10.069 18 10.3445 17.7245 10.3445 17.3846V4.12581L11.7308 5.51206C11.9711 5.75239 12.3607 5.75239 12.6011 5.51206C12.8414 5.27174 12.8414 4.8821 12.6011 4.64178L10.2552 2.29594C10.1472 2.1185 9.95203 2 9.72914 2C9.55305 2 9.39423 2.07396 9.28206 2.19251C9.27774 2.19659 9.27346 2.20075 9.26923 2.20498L6.83243 4.64178C6.59211 4.8821 6.59211 5.27174 6.83243 5.51207C7.07276 5.75239 7.4624 5.75239 7.70272 5.51207L9.11376 4.10103L9.11376 17.3846Z" />
<path d="M5.66755 2.61538C5.66755 2.27552 5.39203 2 5.05216 2C4.71229 2 4.43678 2.27552 4.43678 2.61538L4.43678 15.8742L3.05053 14.4879C2.8102 14.2476 2.42056 14.2476 2.18024 14.4879C1.93992 14.7283 1.93992 15.1179 2.18024 15.3582L4.52608 17.7041C4.63406 17.8815 4.82927 18 5.05216 18C5.22826 18 5.38707 17.926 5.49924 17.8075C5.50356 17.8034 5.50784 17.7992 5.51207 17.795L7.94887 15.3582C8.18919 15.1179 8.18919 14.7283 7.94887 14.4879C7.70855 14.2476 7.31891 14.2476 7.07859 14.4879L5.66755 15.899L5.66755 2.61538Z" />
<path d="M14.972 2.61538C14.972 2.27552 14.6965 2 14.3566 2C14.0167 2 13.7412 2.27552 13.7412 2.61538L13.7412 15.8742L12.355 14.4879C12.1147 14.2476 11.725 14.2476 11.4847 14.4879C11.2444 14.7283 11.2444 15.1179 11.4847 15.3582L13.8305 17.7041C13.9385 17.8815 14.1337 18 14.3566 18C14.5327 18 14.6915 17.926 14.8037 17.8075C14.808 17.8034 14.8123 17.7992 14.8165 17.795L17.2533 15.3582C17.4936 15.1179 17.4936 14.7283 17.2533 14.4879C17.013 14.2476 16.6234 14.2476 16.383 14.4879L14.972 15.899L14.972 2.61538Z" />
</svg>
