<svg width="22" height="17" viewBox="0 0 22 17" fill="none" xmlns="http://www.w3.org/2000/svg">
    <path d="M2.9296 17H19.0704C21.0297 17 22 16.0397 22 14.1374V2.86257C22 0.960348 21.0297 0 19.0704 0H2.9296C0.979644 0 0 0.951114 0 2.86257V14.1374C0 16.0489 0.979644 17 2.9296 17ZM1.50212 2.93645C1.50212 1.9761 2.01527 1.48669 2.94826 1.48669H10.2536V5.1711H1.50212V2.93645ZM19.0517 1.48669C19.9754 1.48669 20.4979 1.9761 20.4979 2.93645V5.1711H11.7557V1.48669H19.0517ZM1.50212 10.3422V6.65779H10.2536V10.3422H1.50212ZM11.7557 10.3422V6.65779H20.4979V10.3422H11.7557ZM2.94826 15.5133C2.01527 15.5133 1.50212 15.0239 1.50212 14.0636V11.8289H10.2536V15.5133H2.94826ZM20.4979 14.0636C20.4979 15.0239 19.9754 15.5133 19.0517 15.5133H11.7557V11.8289H20.4979V14.0636Z"/>
</svg>
