<svg width="20" height="20" viewBox="0 0 20 20" fill="none" xmlns="http://www.w3.org/2000/svg">
<path d="M2.66327 18H17.3367C19.1179 18 20 17.0961 20 15.3058V4.69419C20 2.90386 19.1179 2 17.3367 2H2.66327C0.890585 2 0 2.89517 0 4.69419V15.3058C0 17.1048 0.890585 18 2.66327 18ZM1.36556 4.76372C1.36556 3.85986 1.83206 3.39924 2.68024 3.39924H9.32146V6.86692H1.36556V4.76372ZM17.3198 3.39924C18.1595 3.39924 18.6344 3.85986 18.6344 4.76372V6.86692H10.687V3.39924H17.3198ZM1.36556 11.7338V8.26616H9.32146V11.7338H1.36556ZM10.687 11.7338V8.26616H18.6344V11.7338H10.687ZM2.68024 16.6008C1.83206 16.6008 1.36556 16.1401 1.36556 15.2363V13.1331H9.32146V16.6008H2.68024ZM18.6344 15.2363C18.6344 16.1401 18.1595 16.6008 17.3198 16.6008H10.687V13.1331H18.6344V15.2363Z" />
</svg>
