<svg width="24" height="24" viewBox="0 0 24 24" fill="none" xmlns="http://www.w3.org/2000/svg">
<path d="M11.5306 2.00001C5.70632 2.00792 1 6.71951 1 12.5437C1 15.9186 2.58723 18.9243 5.05508 20.8543L4.06636 22.1199C3.95826 22.2596 4.05845 22.4626 4.23246 22.46L8.63558 22.4389C8.77268 22.4389 8.87287 22.3097 8.83859 22.1779L7.79714 17.8987C7.78773 17.8601 7.76763 17.825 7.73915 17.7973C7.71066 17.7696 7.67494 17.7506 7.63611 17.7423C7.59727 17.7341 7.55689 17.7369 7.51962 17.7506C7.48234 17.7643 7.44967 17.7882 7.42538 17.8196L6.35228 19.1932C6.08335 18.9823 5.82497 18.7529 5.57976 18.5077C4.80888 17.7395 4.19459 16.8288 3.77106 15.8263C3.33075 14.7875 3.10927 13.6828 3.10927 12.5437C3.10927 11.4047 3.33075 10.3 3.77106 9.26119C4.19555 8.25665 4.8046 7.35493 5.57976 6.57977C6.35492 5.80461 7.25664 5.19556 8.26118 4.77107C9.30263 4.33076 10.4074 4.10928 11.5464 4.10928C12.6854 4.10928 13.7901 4.33076 14.8289 4.77107C15.8335 5.19556 16.7352 5.80461 17.5103 6.57977C18.2855 7.35493 18.8946 8.25665 19.3191 9.26119C19.7594 10.3 19.9808 11.4047 19.9808 12.5437C19.9808 13.6828 19.7594 14.7875 19.3191 15.8263C18.8955 16.8288 18.2812 17.7395 17.5103 18.5077C17.3126 18.7055 17.107 18.89 16.8934 19.0667C16.8506 19.1014 16.8233 19.1517 16.8173 19.2065C16.8114 19.2613 16.8274 19.3162 16.8617 19.3593L17.9006 20.6908C17.9744 20.7831 18.1089 20.7989 18.2011 20.7251C20.5767 18.7898 22.0927 15.8448 22.0927 12.5437C22.0927 6.71424 17.3627 1.9921 11.5306 2.00001Z" />
</svg>
